<svg width="54" height="54" viewBox="0 0 54 54" fill="none" xmlns="http://www.w3.org/2000/svg">
<g clip-path="url(#clip0_9078_86579)">
<rect width="54" height="54" rx="5" fill="white"/>
<path d="M48.7256 0H5.27442C2.36093 0 0 2.36093 0 5.27442V48.7256C0 51.6391 2.36093 54 5.27442 54H48.7256C51.6391 54 54 51.6391 54 48.7256V5.27442C54 2.36093 51.6391 0 48.7256 0ZM50.2326 47.2814C50.2326 48.914 48.914 50.2326 47.2814 50.2326H6.71861C5.08605 50.2326 3.76744 48.914 3.76744 47.2814V6.71861C3.76744 5.08605 5.08605 3.76744 6.71861 3.76744H47.2814C48.914 3.76744 50.2326 5.08605 50.2326 6.71861V47.2814Z" fill="#354BCA"/>
<path d="M47.2689 4.55867C33.8191 4.55867 20.2689 4.55867 6.74379 4.521C5.51309 4.521 4.521 5.51309 4.521 6.74379V47.2187C4.521 48.4494 5.51309 49.4289 6.73123 49.4415C20.2563 49.4415 33.8066 49.4791 47.2563 49.4791C48.4745 49.4791 49.4666 48.487 49.4666 47.2689V6.78146C49.4791 5.55076 48.487 4.55867 47.2689 4.55867ZM47.3066 45.6489C47.3066 46.5531 46.5782 47.2815 45.674 47.2815H11.541C11.0889 47.2815 10.687 47.0931 10.3856 46.8043C10.0843 46.5029 9.90844 46.101 9.90844 45.6489C9.90844 45.6363 9.89588 45.6238 9.88332 45.6238H8.07495C7.38425 45.6238 6.81914 45.0587 6.81914 44.368V14.6805C6.81914 13.9898 7.38425 13.4247 8.07495 13.4247H8.65262C9.34332 13.4247 9.90844 12.8596 9.90844 12.1689V8.35123C9.90844 7.44704 10.6368 6.71867 11.541 6.71867H45.674C46.5782 6.71867 47.3066 7.44704 47.3066 8.35123V45.6489Z" fill="#354BCA"/>
<path d="M23.0192 15.2959H9.5066C8.95405 15.2959 8.50195 15.748 8.50195 16.3005V42.5345C8.50195 43.0871 8.95405 43.5392 9.5066 43.5392H23.0192L9.0294 29.2605C13.6633 24.614 18.3099 19.9424 23.0192 15.2959Z" fill="#354BCA"/>
<path d="M28.2307 15.2959H25.3925C20.7083 19.9047 16.0493 24.5638 11.4404 29.2103C16.0618 33.9824 20.7083 38.7671 25.3925 43.5392H28.2307C23.5842 38.7671 18.9125 33.9824 14.2911 29.2103C18.9 24.5512 23.5716 19.9047 28.2307 15.2959Z" fill="#354BCA"/>
<path d="M44.3806 21.0098H30.1899V24.2874H31.1946C38.2397 24.2874 44.0165 28.5572 44.0165 33.8065C44.0165 39.0558 38.2397 43.3256 31.1946 43.3256C30.8555 43.3256 30.5165 43.3256 30.1899 43.2879V43.5391H44.3806C44.9332 43.5391 45.3853 43.087 45.3853 42.5344V22.0144C45.3853 21.4619 44.9332 21.0098 44.3806 21.0098Z" fill="#354BCA"/>
<path d="M30.3028 40.6004C35.6777 40.6004 35.7656 26.8115 30.3028 26.8115C24.8526 26.8115 24.9405 40.6004 30.3028 40.6004Z" fill="#354BCA"/>
</g>
<defs>
<clipPath id="clip0_9078_86579">
<rect width="54" height="54" rx="5" fill="white"/>
</clipPath>
</defs>
</svg>
