<svg width="149" height="54" viewBox="0 0 149 54" fill="none" xmlns="http://www.w3.org/2000/svg">
<g clip-path="url(#clip0_16597_12077)">
<path d="M48.6633 0H5.26768C2.35791 0 0 2.36093 0 5.27442V48.7256C0 51.6391 2.35791 54 5.26768 54H48.6633C51.5731 54 53.931 51.6391 53.931 48.7256V5.27442C53.931 2.36093 51.5731 0 48.6633 0ZM50.1684 47.2814C50.1684 48.914 48.8514 50.2326 47.221 50.2326H6.71002C5.07955 50.2326 3.76263 48.914 3.76263 47.2814V6.71861C3.76263 5.08605 5.07955 3.76744 6.71002 3.76744H47.221C48.8514 3.76744 50.1684 5.08605 50.1684 6.71861V47.2814Z" fill="#354BCA"/>
<path d="M47.2084 4.55861C33.7758 4.55861 20.2429 4.55861 6.73509 4.52094C5.50596 4.52094 4.51514 5.51303 4.51514 6.74373V47.2186C4.51514 48.4493 5.50596 49.4288 6.72254 49.4414C20.2304 49.4414 33.7633 49.4791 47.1959 49.4791C48.4124 49.4791 49.4033 48.487 49.4033 47.2688V6.7814C49.4158 5.5507 48.425 4.55861 47.2084 4.55861ZM47.246 45.6488C47.246 46.553 46.5186 47.2814 45.6156 47.2814H11.5262C11.0746 47.2814 10.6733 47.093 10.3723 46.8042C10.0713 46.5028 9.89569 46.1009 9.89569 45.6488C9.89569 45.6363 9.88315 45.6237 9.87061 45.6237H8.06455C7.37473 45.6237 6.81034 45.0586 6.81034 44.3679V14.6805C6.81034 13.9898 7.37473 13.4247 8.06455 13.4247H8.64148C9.3313 13.4247 9.89569 12.8595 9.89569 12.1688V8.35117C9.89569 7.44698 10.6231 6.71861 11.5262 6.71861H45.6156C46.5186 6.71861 47.246 7.44698 47.246 8.35117V45.6488Z" fill="#354BCA"/>
<path d="M22.9896 15.2958H9.49433C8.94248 15.2958 8.49097 15.7479 8.49097 16.3005V42.5344C8.49097 43.087 8.94248 43.5391 9.49433 43.5391H22.9896L9.01774 29.2605C13.6458 24.614 18.2863 19.9423 22.9896 15.2958Z" fill="#354BCA"/>
<path d="M28.1946 15.2958H25.36C20.6818 19.9047 16.0287 24.5637 11.4258 29.2103C16.0413 33.9823 20.6818 38.767 25.36 43.5391H28.1946C23.554 38.767 18.8883 33.9823 14.2728 29.2103C18.8758 24.5512 23.5414 19.9047 28.1946 15.2958Z" fill="#354BCA"/>
<path d="M44.3237 21.0098H30.1511V24.2874H31.1545C38.1906 24.2874 43.96 28.5572 43.96 33.8065C43.96 39.0558 38.1906 43.3256 31.1545 43.3256C30.8159 43.3256 30.4772 43.3256 30.1511 43.2879V43.5391H44.3237C44.8755 43.5391 45.3271 43.087 45.3271 42.5344V22.0144C45.3271 21.4619 44.8755 21.0098 44.3237 21.0098Z" fill="#354BCA"/>
<path d="M30.2641 40.6005C35.6321 40.6005 35.7199 26.8116 30.2641 26.8116C24.8208 26.8116 24.9086 40.6005 30.2641 40.6005Z" fill="#354BCA"/>
<path d="M67.2632 22.7302H64.2908V5.67627H67.2632V13.1609L74.9766 5.67627H78.8521L71.051 13.3367L79.4165 22.7428H75.4658L68.8185 15.3084L67.2758 16.7902V22.7302H67.2632Z" fill="#354BCA"/>
<path d="M80.9215 27.4647V25.2419C81.6866 25.2419 82.3638 24.5386 82.9282 23.1195L83.3672 21.9768L77.0836 10.0591H80.3195L84.7092 18.6112L88.0956 10.0591H91.0931L86.0888 22.3661C85.3489 24.1995 84.6214 25.5684 83.8814 26.46C83.1164 27.3642 82.0628 27.8288 80.909 27.8288V27.4647H80.9215Z" fill="#354BCA"/>
<path d="M103.334 4.6214L103.798 7.13303C103.108 7.40931 101.93 7.61024 100.236 7.74838C98.5557 7.87396 97.4018 8.07489 96.7998 8.33861C95.3324 9.01675 94.5297 10.4358 94.4168 12.5833C95.3198 11.2772 96.8751 10.6367 99.0825 10.6367C100.901 10.6367 102.331 11.1767 103.384 12.2693C104.45 13.3367 104.977 14.7558 104.977 16.514C104.977 18.4354 104.375 19.9926 103.159 21.1981C101.942 22.4037 100.387 23.0065 98.493 23.0065C96.273 23.0065 94.5673 22.3033 93.3884 20.8842C92.222 19.4526 91.645 17.6316 91.645 15.3963C91.645 14.1656 91.7077 13.073 91.8457 12.1312C91.9962 11.1893 92.247 10.2349 92.6108 9.28047C92.987 8.32605 93.564 7.52233 94.329 6.86931C95.0941 6.20372 96.0598 5.71396 97.2262 5.41256C97.8534 5.28698 98.8442 5.17396 100.224 5.07349C101.629 4.97303 102.67 4.83489 103.334 4.6214ZM94.5422 15.8358V16.0995C94.5422 17.28 94.906 18.2972 95.6209 19.1512C96.3358 19.98 97.289 20.3944 98.4679 20.3944C99.5842 20.3944 100.462 20.0554 101.089 19.3647C101.741 18.6614 102.067 17.7698 102.067 16.6647C102.067 15.5595 101.754 14.7056 101.139 14.1028C100.512 13.5 99.6469 13.1986 98.5432 13.1986C97.6401 13.1986 96.8374 13.4372 96.11 13.9019C95.3951 14.3791 94.8809 15.0195 94.5422 15.8358Z" fill="#354BCA"/>
<path d="M108.351 13.6884L106.972 11.6414C107.611 11.0386 108.414 10.574 109.405 10.2475C110.383 9.92095 111.361 9.75769 112.327 9.75769C114.008 9.75769 115.299 10.2098 116.202 11.1265C117.106 12.0182 117.557 13.2991 117.557 14.9819V22.7302H114.76V21.3489C113.832 22.3786 112.515 22.8809 110.809 22.8809C109.48 22.8809 108.376 22.5419 107.498 21.8512C106.62 21.1479 106.169 20.1558 106.169 18.8749C106.169 18.0963 106.344 17.4307 106.708 16.8782C107.072 16.3256 107.561 15.9112 108.176 15.6349C108.803 15.3586 109.43 15.1577 110.069 15.0447C110.709 14.9191 111.399 14.8437 112.126 14.8437C113.092 14.8437 113.97 14.9568 114.748 15.1828C114.785 14.2912 114.585 13.5879 114.158 13.0605C113.732 12.5707 113.017 12.3321 112.001 12.3321C110.759 12.3447 109.53 12.7968 108.351 13.6884ZM111.424 20.4698C112.089 20.4698 112.728 20.3191 113.343 20.0051C113.957 19.6912 114.422 19.2768 114.773 18.7368V17.5186C113.957 17.2926 113.18 17.1796 112.44 17.1796C110.195 17.1796 109.079 17.7447 109.079 18.8623C109.079 19.4149 109.317 19.8168 109.793 20.0805C110.27 20.3316 110.822 20.4698 111.424 20.4698Z" fill="#354BCA"/>
<path d="M131.83 22.7302H129.033V17.5814H122.9V22.7302H120.103V10.0591H122.9V15.0321H129.033V10.0591H131.83V22.7302Z" fill="#354BCA"/>
<path d="M139.782 22.7302H134.451V10.0591H137.248V13.7386H139.945C143.544 13.7386 145.35 15.2205 145.35 18.1968C145.35 19.754 144.823 20.8968 143.782 21.6377C142.729 22.3661 141.399 22.7302 139.782 22.7302ZM139.706 16.3256H137.248V20.1558H139.681C141.525 20.1558 142.453 19.5154 142.453 18.2344C142.453 16.9535 141.537 16.3256 139.706 16.3256Z" fill="#354BCA"/>
<path d="M67.2632 44.6567H64.2908V27.5902H67.2632V35.0749L74.9766 27.5902H78.8521L71.051 35.2507L79.4165 44.6567H75.4658L68.8185 37.2223L67.2758 38.7042V44.6567H67.2632Z" fill="#354BCA"/>
<path d="M83.3672 49.5293H80.5703V31.973H83.3672V33.1158C83.7435 32.6386 84.2451 32.287 84.8848 32.0484C85.537 31.8098 86.2142 31.6842 86.8915 31.6842C88.8105 31.6842 90.3155 32.287 91.4067 33.4926C92.5229 34.6982 93.0748 36.2302 93.0748 38.1014C93.0748 40.0479 92.4853 41.6679 91.3063 42.9489C90.1399 44.2298 88.6098 44.8702 86.6908 44.8702C86.0888 44.8702 85.4492 44.7949 84.7719 44.6316C84.1197 44.4558 83.6431 44.1796 83.3421 43.8279V49.5293H83.3672ZM86.6031 34.2712C85.9007 34.2712 85.2485 34.4596 84.659 34.8363C84.0821 35.213 83.6557 35.7154 83.3546 36.3433V40.7261C83.9943 41.7684 84.9977 42.2833 86.3773 42.2833C87.5437 42.2833 88.4593 41.9191 89.1491 41.1907C89.8389 40.4372 90.1775 39.4828 90.1775 38.3149C90.1775 37.1093 89.8765 36.1423 89.2745 35.3889C88.6725 34.6479 87.782 34.2712 86.6031 34.2712Z" fill="#354BCA"/>
<path d="M104.814 40.613L106.533 42.2958C105.253 44.0163 103.535 44.8828 101.353 44.8828C99.3083 44.8828 97.6527 44.28 96.3985 43.0744C95.1443 41.8688 94.5046 40.2739 94.5046 38.3023C94.5046 36.3056 95.1067 34.6981 96.2982 33.5051C97.5147 32.2995 99.095 31.6967 101.064 31.6967C102.833 31.6967 104.275 32.2367 105.379 33.3293C106.495 34.3967 107.047 35.7907 107.047 37.4986C107.047 37.9256 106.997 38.5158 106.896 39.2818H97.4269C97.5398 40.2739 97.9663 41.0274 98.7062 41.5549C99.4588 42.0572 100.362 42.3083 101.403 42.3083C102.055 42.3083 102.695 42.1576 103.322 41.8688C103.936 41.5423 104.438 41.1279 104.814 40.613ZM100.939 34.1958C100.061 34.1958 99.2957 34.4344 98.6561 34.899C98.029 35.3763 97.6276 36.0167 97.452 36.8456H104.15C103.899 35.0874 102.833 34.1958 100.939 34.1958Z" fill="#354BCA"/>
<path d="M110.182 47.5577H107.586V42.0698H109.053C110.019 40.4121 110.496 37.7749 110.496 34.1707V31.973H120.266V42.0698H122.06V47.5577H119.463V44.6567H110.182V47.5577ZM117.469 34.56H113.155V35.6023C113.155 38.2646 112.753 40.4246 111.951 42.0572H117.469V34.56Z" fill="#354BCA"/>
<path d="M132.658 36.4186L125.885 44.6567H123.452V31.973H126.249V40.2363L133.021 31.973H135.455V44.6442H132.658V36.4186Z" fill="#354BCA"/>
<path d="M141.462 34.56H136.847V31.973H148.875V34.56H144.259V44.6567H141.462V34.56Z" fill="#354BCA"/>
<path d="M67.2632 22.7302H64.2908V5.67627H67.2632V13.1609L74.9766 5.67627H78.8521L71.051 13.3367L79.4165 22.7428H75.4658L68.8185 15.3084L67.2758 16.7902V22.7302H67.2632Z" stroke="#354BCA" stroke-width="0.5103"/>
<path d="M80.9215 27.4647V25.2419C81.6866 25.2419 82.3638 24.5386 82.9282 23.1195L83.3672 21.9768L77.0836 10.0591H80.3195L84.7092 18.6112L88.0956 10.0591H91.0931L86.0888 22.3661C85.3489 24.1995 84.6214 25.5684 83.8814 26.46C83.1164 27.3642 82.0628 27.8288 80.909 27.8288V27.4647H80.9215Z" stroke="#354BCA" stroke-width="0.5103"/>
<path d="M103.334 4.6214L103.798 7.13303C103.108 7.40931 101.93 7.61024 100.236 7.74838C98.5557 7.87396 97.4018 8.07489 96.7998 8.33861C95.3324 9.01675 94.5297 10.4358 94.4168 12.5833C95.3198 11.2772 96.8751 10.6367 99.0825 10.6367C100.901 10.6367 102.331 11.1767 103.384 12.2693C104.45 13.3367 104.977 14.7558 104.977 16.514C104.977 18.4354 104.375 19.9926 103.159 21.1981C101.942 22.4037 100.387 23.0065 98.493 23.0065C96.273 23.0065 94.5673 22.3033 93.3884 20.8842C92.222 19.4526 91.645 17.6316 91.645 15.3963C91.645 14.1656 91.7077 13.073 91.8457 12.1312C91.9962 11.1893 92.247 10.2349 92.6108 9.28047C92.987 8.32605 93.564 7.52233 94.329 6.86931C95.0941 6.20372 96.0598 5.71396 97.2262 5.41256C97.8534 5.28698 98.8442 5.17396 100.224 5.07349C101.629 4.97303 102.67 4.83489 103.334 4.6214ZM94.5422 15.8358V16.0995C94.5422 17.28 94.906 18.2972 95.6209 19.1512C96.3358 19.98 97.289 20.3944 98.4679 20.3944C99.5842 20.3944 100.462 20.0554 101.089 19.3647C101.741 18.6614 102.067 17.7698 102.067 16.6647C102.067 15.5595 101.754 14.7056 101.139 14.1028C100.512 13.5 99.6469 13.1986 98.5432 13.1986C97.6401 13.1986 96.8374 13.4372 96.11 13.9019C95.3951 14.3791 94.8809 15.0195 94.5422 15.8358Z" stroke="#354BCA" stroke-width="0.5103"/>
<path d="M108.351 13.6884L106.972 11.6414C107.611 11.0386 108.414 10.574 109.405 10.2475C110.383 9.92095 111.361 9.75769 112.327 9.75769C114.008 9.75769 115.299 10.2098 116.202 11.1265C117.106 12.0182 117.557 13.2991 117.557 14.9819V22.7302H114.76V21.3489C113.832 22.3786 112.515 22.8809 110.809 22.8809C109.48 22.8809 108.376 22.5419 107.498 21.8512C106.62 21.1479 106.169 20.1558 106.169 18.8749C106.169 18.0963 106.344 17.4307 106.708 16.8782C107.072 16.3256 107.561 15.9112 108.176 15.6349C108.803 15.3586 109.43 15.1577 110.069 15.0447C110.709 14.9191 111.399 14.8437 112.126 14.8437C113.092 14.8437 113.97 14.9568 114.748 15.1828C114.785 14.2912 114.585 13.5879 114.158 13.0605C113.732 12.5707 113.017 12.3321 112.001 12.3321C110.759 12.3447 109.53 12.7968 108.351 13.6884ZM111.424 20.4698C112.089 20.4698 112.728 20.3191 113.343 20.0051C113.957 19.6912 114.422 19.2768 114.773 18.7368V17.5186C113.957 17.2926 113.18 17.1796 112.44 17.1796C110.195 17.1796 109.079 17.7447 109.079 18.8623C109.079 19.4149 109.317 19.8168 109.793 20.0805C110.27 20.3316 110.822 20.4698 111.424 20.4698Z" stroke="#354BCA" stroke-width="0.5103"/>
<path d="M131.83 22.7302H129.033V17.5814H122.9V22.7302H120.103V10.0591H122.9V15.0321H129.033V10.0591H131.83V22.7302Z" stroke="#354BCA" stroke-width="0.5103"/>
<path d="M139.782 22.7302H134.451V10.0591H137.248V13.7386H139.945C143.544 13.7386 145.35 15.2205 145.35 18.1968C145.35 19.754 144.823 20.8968 143.782 21.6377C142.729 22.3661 141.399 22.7302 139.782 22.7302ZM139.706 16.3256H137.248V20.1558H139.681C141.525 20.1558 142.453 19.5154 142.453 18.2344C142.453 16.9535 141.537 16.3256 139.706 16.3256Z" stroke="#354BCA" stroke-width="0.5103"/>
<path d="M67.2632 44.6567H64.2908V27.5902H67.2632V35.0749L74.9766 27.5902H78.8521L71.051 35.2507L79.4165 44.6567H75.4658L68.8185 37.2223L67.2758 38.7042V44.6567H67.2632Z" stroke="#354BCA" stroke-width="0.5103"/>
<path d="M83.3672 49.5293H80.5703V31.973H83.3672V33.1158C83.7435 32.6386 84.2451 32.287 84.8848 32.0484C85.537 31.8098 86.2142 31.6842 86.8915 31.6842C88.8105 31.6842 90.3155 32.287 91.4067 33.4926C92.5229 34.6982 93.0748 36.2302 93.0748 38.1014C93.0748 40.0479 92.4853 41.6679 91.3063 42.9489C90.1399 44.2298 88.6098 44.8702 86.6908 44.8702C86.0888 44.8702 85.4492 44.7949 84.7719 44.6316C84.1197 44.4558 83.6431 44.1796 83.3421 43.8279V49.5293H83.3672ZM86.6031 34.2712C85.9007 34.2712 85.2485 34.4596 84.659 34.8363C84.0821 35.213 83.6557 35.7154 83.3546 36.3433V40.7261C83.9943 41.7684 84.9977 42.2833 86.3773 42.2833C87.5437 42.2833 88.4593 41.9191 89.1491 41.1907C89.8389 40.4372 90.1775 39.4828 90.1775 38.3149C90.1775 37.1093 89.8765 36.1423 89.2745 35.3889C88.6725 34.6479 87.782 34.2712 86.6031 34.2712Z" stroke="#354BCA" stroke-width="0.5103"/>
<path d="M104.814 40.613L106.533 42.2958C105.253 44.0163 103.535 44.8828 101.353 44.8828C99.3083 44.8828 97.6527 44.28 96.3985 43.0744C95.1443 41.8688 94.5046 40.2739 94.5046 38.3023C94.5046 36.3056 95.1067 34.6981 96.2982 33.5051C97.5147 32.2995 99.095 31.6967 101.064 31.6967C102.833 31.6967 104.275 32.2367 105.379 33.3293C106.495 34.3967 107.047 35.7907 107.047 37.4986C107.047 37.9256 106.997 38.5158 106.896 39.2818H97.4269C97.5398 40.2739 97.9663 41.0274 98.7062 41.5549C99.4588 42.0572 100.362 42.3083 101.403 42.3083C102.055 42.3083 102.695 42.1576 103.322 41.8688C103.936 41.5423 104.438 41.1279 104.814 40.613ZM100.939 34.1958C100.061 34.1958 99.2957 34.4344 98.6561 34.899C98.029 35.3763 97.6276 36.0167 97.452 36.8456H104.15C103.899 35.0874 102.833 34.1958 100.939 34.1958Z" stroke="#354BCA" stroke-width="0.5103"/>
<path d="M110.182 47.5577H107.586V42.0698H109.053C110.019 40.4121 110.496 37.7749 110.496 34.1707V31.973H120.266V42.0698H122.06V47.5577H119.463V44.6567H110.182V47.5577ZM117.469 34.56H113.155V35.6023C113.155 38.2646 112.753 40.4246 111.951 42.0572H117.469V34.56Z" stroke="#354BCA" stroke-width="0.5103"/>
<path d="M132.658 36.4186L125.885 44.6567H123.452V31.973H126.249V40.2363L133.021 31.973H135.455V44.6442H132.658V36.4186Z" stroke="#354BCA" stroke-width="0.5103"/>
<path d="M141.462 34.56H136.847V31.973H148.875V34.56H144.259V44.6567H141.462V34.56Z" stroke="#354BCA" stroke-width="0.5103"/>
</g>
<defs>
<clipPath id="clip0_16597_12077">
<rect width="149" height="54" fill="white"/>
</clipPath>
</defs>
</svg>
