<svg width="79" height="32" viewBox="0 0 79 32" fill="none" xmlns="http://www.w3.org/2000/svg">
<mask id="mask0_16654_14327" style="mask-type:luminance" maskUnits="userSpaceOnUse" x="0" y="0" width="79" height="32">
<path d="M79 0H0V32H79V0Z" fill="white"/>
</mask>
<g mask="url(#mask0_16654_14327)">
<path d="M6.81845 20.336C6.40626 20.0752 5.97611 19.8726 5.52751 19.7281C5.07895 19.5841 4.6097 19.5121 4.11992 19.5121C3.79959 19.5121 3.50654 19.5455 3.24118 19.6119C2.97555 19.6777 2.74782 19.7739 2.55784 19.9004C2.36812 20.0265 2.22028 20.1771 2.11509 20.3531C2.00977 20.5294 1.95704 20.7279 1.95704 20.9474C1.95704 21.1485 2.00301 21.3201 2.09455 21.4622C2.1861 21.6042 2.31778 21.7244 2.48948 21.8228C2.66091 21.9214 2.8705 22.0022 3.11757 22.0665C3.36491 22.1307 3.64405 22.1858 3.95512 22.2315L4.62123 22.3206C5.01019 22.3756 5.39029 22.4605 5.76098 22.5751C6.13165 22.6892 6.46231 22.8492 6.75309 23.0555C7.04365 23.2611 7.27733 23.5205 7.45339 23.8314C7.62988 24.1425 7.71799 24.5203 7.71799 24.9644C7.71799 25.4543 7.61491 25.8869 7.40887 26.2623C7.20261 26.6376 6.92348 26.9535 6.57121 27.2094C6.21839 27.4663 5.80996 27.661 5.34564 27.7936C4.88076 27.9262 4.38767 27.9926 3.86582 27.9926C3.54058 27.9926 3.20329 27.9654 2.85314 27.9098C2.50299 27.8554 2.15722 27.7742 1.81621 27.6667C1.47534 27.5587 1.14904 27.4249 0.837571 27.2649C0.526241 27.1045 0.247108 26.9169 3.05176e-05 26.7014L0.844601 25.4657C1.00966 25.6163 1.20733 25.7566 1.43864 25.8848C1.66956 26.0129 1.91782 26.1249 2.18345 26.221C2.44907 26.3167 2.72463 26.3919 3.01079 26.4443C3.29682 26.4968 3.5798 26.5236 3.85867 26.5236C4.17477 26.5236 4.46875 26.4916 4.74113 26.4272C5.01364 26.3631 5.25051 26.2689 5.45175 26.1455C5.65301 26.0221 5.81224 25.8719 5.92892 25.6956C6.04593 25.5197 6.10422 25.3218 6.10422 25.1022C6.10422 24.7263 5.91967 24.4403 5.55151 24.2434C5.18282 24.0466 4.64627 23.9 3.94134 23.8038L3.19295 23.7011C2.83579 23.6505 2.4867 23.5683 2.14582 23.4537C1.80495 23.3403 1.50051 23.1786 1.2325 22.9699C0.964631 22.7617 0.74947 22.5009 0.58718 22.1872C0.424366 21.8741 0.343157 21.493 0.343157 21.044C0.343157 20.5632 0.442915 20.1364 0.642171 19.7629C0.841021 19.3902 1.11234 19.0765 1.4556 18.8223C1.79886 18.5679 2.20067 18.3746 2.66065 18.2423C3.12062 18.1091 3.61146 18.0429 4.13357 18.0429C4.834 18.0429 5.46672 18.1354 6.03178 18.321C6.59717 18.5063 7.12261 18.7593 7.608 19.0795L6.81845 20.336ZM12.0573 21.0709C12.5148 21.0709 12.9349 21.1548 13.3171 21.3214C13.6992 21.4891 14.0264 21.7245 14.2989 22.0291C14.5713 22.3336 14.7841 22.6975 14.9376 23.1207C15.0906 23.5444 15.1675 24.0124 15.1675 24.5252C15.1675 24.6166 15.1651 24.7083 15.1607 24.7998C15.1558 24.8912 15.1492 24.9783 15.1399 25.0605H10.2787C10.3244 25.3583 10.4093 25.6123 10.5326 25.8227C10.656 26.0334 10.8051 26.2063 10.979 26.3415C11.1531 26.4764 11.3474 26.5761 11.563 26.6397C11.7778 26.704 12.002 26.7359 12.2356 26.7359C12.5654 26.7359 12.8957 26.6758 13.2277 26.5545C13.5598 26.4331 13.8629 26.2624 14.1375 26.0428L14.8515 27.0657C14.4489 27.4093 14.0222 27.6499 13.5712 27.7866C13.1202 27.9244 12.6455 27.9929 12.1464 27.9929C11.6519 27.9929 11.1986 27.9101 10.7869 27.746C10.375 27.5811 10.0202 27.3475 9.72263 27.0457C9.42498 26.7434 9.1938 26.3792 9.02928 25.9534C8.86449 25.5276 8.78193 25.0541 8.78193 24.532C8.78193 24.0193 8.86193 23.5498 9.02226 23.1245C9.18242 22.6987 9.40686 22.3337 9.69493 22.0292C9.98353 21.7246 10.3277 21.4892 10.7286 21.3216C11.1289 21.1547 11.5719 21.0709 12.0573 21.0709ZM12.0295 22.3482C11.7732 22.3482 11.5457 22.3867 11.3465 22.4645C11.1475 22.5431 10.9755 22.6537 10.8315 22.7982C10.6875 22.9422 10.5694 23.1139 10.4781 23.3129C10.3863 23.512 10.3223 23.7304 10.2857 23.9687H13.6981C13.6202 23.4559 13.4373 23.0574 13.1488 22.774C12.8604 22.4903 12.4874 22.3482 12.0295 22.3482ZM19.6579 21.0709C20.1523 21.0709 20.6123 21.1589 21.0378 21.3352C21.4639 21.5116 21.823 21.7738 22.1162 22.1216L21.1958 23.1032C20.9626 22.8837 20.7199 22.7154 20.4682 22.5987C20.2165 22.482 19.9327 22.4239 19.6168 22.4239C19.3421 22.4239 19.0855 22.4753 18.8476 22.5781C18.6096 22.6809 18.4036 22.8255 18.2298 23.0106C18.0557 23.1958 17.9195 23.4184 17.8211 23.6766C17.7229 23.9358 17.6735 24.2206 17.6735 24.5318C17.6735 24.8428 17.7229 25.1284 17.8211 25.3868C17.9195 25.6456 18.0557 25.8677 18.2298 26.0529C18.4036 26.2379 18.6095 26.3819 18.8476 26.4854C19.0855 26.5882 19.3421 26.6396 19.6168 26.6396C19.9325 26.6396 20.2277 26.5744 20.5023 26.4442C20.7771 26.3141 21.0198 26.1499 21.2302 25.953L22.1162 26.942C21.8141 27.2896 21.4524 27.552 21.0312 27.7283C20.61 27.9047 20.1525 27.9926 19.658 27.9926C19.1361 27.9926 18.6623 27.9047 18.2365 27.7283C17.8111 27.552 17.4471 27.3092 17.1449 27.0006C16.8429 26.6916 16.6094 26.3265 16.4446 25.9048C16.2798 25.4841 16.1972 25.0265 16.1972 24.5318C16.1972 24.0377 16.2798 23.5794 16.4446 23.1582C16.6094 22.737 16.8429 22.3718 17.1449 22.0634C17.4469 21.7543 17.811 21.5116 18.2365 21.3352C18.6622 21.1589 19.136 21.0709 19.6579 21.0709ZM29.4764 25.0331C29.4764 25.5546 29.3895 26.0035 29.2156 26.3788C29.0415 26.7542 28.8125 27.0614 28.5288 27.2993C28.2449 27.5375 27.9201 27.7123 27.5539 27.8243C27.1876 27.9366 26.8122 27.9926 26.4276 27.9926C26.0432 27.9926 25.6679 27.9366 25.3017 27.8243C24.9353 27.7123 24.6094 27.5375 24.3231 27.2993C24.0369 27.0614 23.8081 26.7542 23.6366 26.3788C23.4646 26.0035 23.3791 25.5545 23.3791 25.0331V21.2427H24.8208V24.9026C24.8208 25.2182 24.8623 25.4879 24.9443 25.7094C25.0269 25.9316 25.1403 26.1111 25.2844 26.2487C25.4286 26.3856 25.599 26.4854 25.7958 26.5471C25.9928 26.6088 26.2033 26.6396 26.4275 26.6396C26.6518 26.6396 26.8622 26.6088 27.0595 26.5471C27.2561 26.4854 27.4266 26.3856 27.5709 26.2487C27.7151 26.1111 27.8284 25.9314 27.9107 25.7094C27.9929 25.4879 28.0344 25.2182 28.0344 24.9026V21.2427H29.4762L29.4764 25.0331ZM34.7151 21.0709C34.9348 21.0709 35.1325 21.0857 35.309 21.1156C35.4853 21.1449 35.6558 21.1921 35.8206 21.256L35.4774 22.6779C35.3262 22.5996 35.1498 22.5406 34.9488 22.4989C34.7472 22.4577 34.5593 22.4372 34.3854 22.4372C34.1567 22.4372 33.9464 22.4763 33.754 22.554C33.5617 22.6321 33.3966 22.7463 33.2596 22.8974C33.1221 23.0486 33.0147 23.2339 32.9366 23.4532C32.8587 23.6735 32.8199 23.9228 32.8199 24.2021V27.8208H31.3847V21.2427H32.8063V21.9842C33.0258 21.6679 33.2983 21.437 33.6233 21.2906C33.9484 21.1439 34.3125 21.0709 34.7151 21.0709ZM39.5356 21.0709C39.9933 21.0709 40.4133 21.1548 40.7955 21.3214C41.1781 21.4891 41.5051 21.7245 41.7776 22.0291C42.0496 22.3336 42.2623 22.6975 42.4162 23.1207C42.5688 23.5444 42.6455 24.0124 42.6455 24.5252C42.6455 24.6166 42.6432 24.7083 42.6393 24.7998C42.6341 24.8912 42.6274 24.9783 42.6182 25.0605H37.7569C37.8026 25.3583 37.8873 25.6123 38.0109 25.8227C38.1344 26.0334 38.2834 26.2063 38.4571 26.3415C38.6312 26.4764 38.8253 26.5761 39.0408 26.6397C39.2557 26.704 39.4804 26.7359 39.7133 26.7359C40.0435 26.7359 40.3741 26.6758 40.7057 26.5545C41.038 26.4331 41.3408 26.2624 41.6159 26.0428L42.3295 27.0657C41.9269 27.4093 41.5 27.6499 41.0492 27.7866C40.5983 27.9244 40.1237 27.9929 39.6244 27.9929C39.1303 27.9929 38.6768 27.9101 38.2647 27.746C37.8529 27.5811 37.4981 27.3475 37.2007 27.0457C36.9028 26.7434 36.6718 26.3792 36.5072 25.9534C36.3422 25.5276 36.2599 25.0541 36.2599 24.532C36.2599 24.0193 36.3399 23.5498 36.5002 23.1245C36.6604 22.6987 36.8845 22.3337 37.1731 22.0292C37.4615 21.7246 37.8058 21.4892 38.2063 21.3216C38.6072 21.1547 39.0502 21.0709 39.5356 21.0709ZM39.5078 22.3482C39.2517 22.3482 39.024 22.3867 38.8246 22.4645C38.6258 22.5431 38.4538 22.6537 38.3095 22.7982C38.1655 22.9422 38.0475 23.1139 37.9562 23.3129C37.8645 23.512 37.8004 23.7304 37.7639 23.9687H41.1769C41.0986 23.4559 40.9157 23.0574 40.6273 22.774C40.3387 22.4903 39.9661 22.3482 39.5078 22.3482ZM48.839 18.0286C49.2648 18.0286 49.6772 18.0743 50.075 18.1658C50.4737 18.2579 50.8439 18.39 51.1873 18.5644C51.5303 18.7387 51.8425 18.9501 52.1212 19.2001C52.4003 19.4494 52.6344 19.7293 52.8215 20.0409L51.5242 20.9058C51.2305 20.4753 50.8547 20.1369 50.3946 19.8897C49.9338 19.6429 49.4161 19.5194 48.8391 19.5194C48.349 19.5194 47.896 19.6038 47.4796 19.7729C47.0629 19.9426 46.7036 20.1807 46.4012 20.4873C46.0994 20.7937 45.8624 21.1626 45.6912 21.5929C45.5194 22.0234 45.4335 22.4969 45.4335 23.0143C45.4335 23.5317 45.5194 24.0058 45.6912 24.4358C45.8624 24.8663 46.0994 25.2344 46.4012 25.5415C46.7035 25.8485 47.0629 26.0861 47.4796 26.2553C47.896 26.4249 48.349 26.5094 48.8391 26.5094C49.4109 26.5094 49.925 26.3885 50.3803 26.1458C50.8363 25.9031 51.2148 25.5647 51.5171 25.1296L52.7809 26.0568C52.5747 26.3586 52.3337 26.6286 52.0565 26.8667C51.7798 27.1048 51.4728 27.3084 51.1359 27.478C50.7992 27.6472 50.4376 27.7768 50.051 27.866C49.6639 27.9554 49.2603 28.0002 48.8393 28.0002C48.1022 28.0002 47.4246 27.8752 46.8071 27.6253C46.1891 27.3762 45.6578 27.0291 45.2142 26.5854C44.7698 26.141 44.4245 25.615 44.1769 25.0061C43.9303 24.3966 43.8063 23.7335 43.8063 23.0144C43.8063 22.2954 43.9303 21.6321 44.1769 21.0228C44.4245 20.4138 44.7699 19.8875 45.2142 19.4436C45.658 18.9997 46.1891 18.6531 46.8071 18.4038C47.4245 18.1535 48.1021 18.0286 48.839 18.0286ZM57.3193 21.0709C57.8271 21.0709 58.2973 21.1589 58.7294 21.3352C59.1626 21.5116 59.5365 21.7543 59.8521 22.0634C60.1683 22.3718 60.4154 22.737 60.5939 23.1582C60.7724 23.5794 60.8616 24.0377 60.8616 24.5318C60.8616 25.0265 60.7724 25.4841 60.5939 25.9048C60.4154 26.3265 60.1683 26.6916 59.8521 27.0006C59.5365 27.3092 59.1626 27.552 58.7294 27.7283C58.2973 27.9047 57.8271 27.9926 57.3193 27.9926C56.8105 27.9926 56.3403 27.9047 55.9076 27.7283C55.475 27.552 55.1022 27.3092 54.7887 27.0006C54.4747 26.6916 54.2295 26.3265 54.0505 25.9048C53.8721 25.4841 53.7832 25.0265 53.7832 24.5318C53.7832 24.0377 53.8721 23.5794 54.0505 23.1582C54.2296 22.737 54.4747 22.3718 54.7887 22.0634C55.1022 21.7543 55.475 21.5116 55.9076 21.3352C56.3403 21.1589 56.8105 21.0709 57.3193 21.0709ZM57.3193 22.4239C57.0254 22.4239 56.7533 22.4753 56.5014 22.5781C56.2505 22.6809 56.0322 22.8255 55.8494 23.0106C55.666 23.1958 55.5218 23.4184 55.4167 23.6766C55.3117 23.9358 55.2589 24.2206 55.2589 24.5318C55.2589 24.8428 55.3117 25.1284 55.4167 25.3868C55.5218 25.6456 55.666 25.8677 55.8494 26.0529C56.0322 26.2379 56.2499 26.3819 56.5014 26.4854C56.7533 26.5882 57.0254 26.6396 57.3193 26.6396C57.6121 26.6396 57.8837 26.5882 58.1356 26.4854C58.3871 26.3821 58.6064 26.238 58.7914 26.0529C58.977 25.8677 59.1218 25.6456 59.2279 25.3868C59.3329 25.1284 59.3857 24.8428 59.3857 24.5318C59.3857 24.2206 59.3329 23.9358 59.2279 23.6766C59.1218 23.4184 58.977 23.1958 58.7914 23.0106C58.6064 22.8257 58.3871 22.6811 58.1356 22.5781C57.8837 22.4752 57.6121 22.4239 57.3193 22.4239ZM65.1805 21.0709C65.6524 21.0709 66.0573 21.1589 66.3958 21.3352C66.7348 21.5116 67.0184 21.7465 67.248 22.0391V17.9324H68.6831V27.8208H67.248V27.0315C67.0189 27.3242 66.7348 27.5581 66.3958 27.7319C66.0573 27.9058 65.6524 27.9926 65.1805 27.9926C64.7185 27.9926 64.288 27.9073 63.8902 27.735C63.4918 27.5632 63.1441 27.3242 62.8464 27.0172C62.5487 26.7111 62.3152 26.3461 62.146 25.9223C61.9762 25.499 61.8918 25.0352 61.8918 24.5318C61.8918 24.0283 61.9762 23.5644 62.146 23.1412C62.3152 22.7181 62.5487 22.3524 62.8464 22.0458C63.1441 21.7393 63.4918 21.5002 63.8902 21.3285C64.288 21.1568 64.7185 21.0709 65.1805 21.0709ZM65.3525 22.4239C65.0407 22.4239 64.7631 22.48 64.5182 22.5915C64.2733 22.7041 64.0665 22.8553 63.8967 23.045C63.7275 23.2349 63.5969 23.458 63.5054 23.7147C63.414 23.9713 63.3683 24.2433 63.3683 24.5319C63.3683 24.8199 63.414 25.0925 63.5054 25.3491C63.5969 25.6057 63.7275 25.8289 63.8967 26.0187C64.0665 26.2085 64.2733 26.3596 64.5182 26.4722C64.7631 26.5843 65.0407 26.6399 65.3525 26.6399C65.6497 26.6399 65.9196 26.5865 66.1628 26.4783C66.4056 26.3713 66.614 26.2233 66.7876 26.0356C66.9618 25.8485 67.0962 25.6263 67.1925 25.3698C67.2883 25.1135 67.3367 24.8344 67.3367 24.532C67.3367 24.2302 67.2883 23.9504 67.1925 23.6943C67.0962 23.4376 66.9618 23.2162 66.7876 23.0285C66.614 22.8407 66.4056 22.6931 66.1628 22.5852C65.9196 22.4778 65.6497 22.4239 65.3525 22.4239ZM73.4619 21.0709C73.9196 21.0709 74.3392 21.1548 74.7212 21.3214C75.1033 21.4891 75.4314 21.7245 75.7035 22.0291C75.9762 22.3336 76.1884 22.6975 76.3419 23.1207C76.4954 23.5444 76.5721 24.0124 76.5721 24.5252C76.5721 24.6166 76.5688 24.7083 76.565 24.7998C76.5607 24.8912 76.5531 24.9783 76.5443 25.0605H71.6834C71.7286 25.3583 71.8135 25.6123 71.9375 25.8227C72.0611 26.0334 72.2097 26.2063 72.3838 26.3415C72.5574 26.4764 72.7517 26.5761 72.9672 26.6397C73.1822 26.704 73.4069 26.7359 73.6399 26.7359C73.9702 26.7359 74.3005 26.6758 74.632 26.5545C74.9639 26.4331 75.2671 26.2624 75.5424 26.0428L76.2559 27.0657C75.8526 27.4093 75.426 27.6499 74.9748 27.7866C74.5248 27.9244 74.0502 27.9929 73.5512 27.9929C73.057 27.9929 72.6031 27.9101 72.1912 27.746C71.7792 27.5811 71.4238 27.3475 71.1267 27.0457C70.8295 26.7434 70.5982 26.3792 70.4339 25.9534C70.269 25.5276 70.1868 25.0541 70.1868 24.532C70.1868 24.0193 70.2663 23.5498 70.4268 23.1245C70.5868 22.6987 70.811 22.3337 71.1 22.0292C71.3884 21.7246 71.7324 21.4892 72.1329 21.3216C72.534 21.1547 72.9765 21.0709 73.4619 21.0709ZM73.4341 22.3482C73.1778 22.3482 72.9503 22.3867 72.7506 22.4645C72.552 22.5431 72.38 22.6537 72.2358 22.7982C72.0916 22.9422 71.974 23.1139 71.8826 23.3129C71.7906 23.512 71.7264 23.7304 71.6899 23.9687H75.1022C75.0249 23.4559 74.842 23.0574 74.5536 22.774C74.2652 22.4903 73.8918 22.3482 73.4341 22.3482Z" fill="#999999"/>
<path d="M11.5431 14.2566H9.93343V6.05153L7.02073 13.2807H5.32577L2.41277 6.1297V14.2566H0.803131V4.28513H3.2747L6.17339 11.4077L9.07194 4.28513H11.5431V14.2566ZM20.0179 14.2566H18.5293V13.4377C18.2919 13.7416 17.9977 13.9835 17.6463 14.164C17.295 14.3447 16.8745 14.4349 16.3858 14.4349C15.9059 14.4349 15.46 14.3457 15.0468 14.1678C14.6336 13.9896 14.2727 13.7416 13.9642 13.4232C13.6556 13.1055 13.4135 12.7267 13.2379 12.2872C13.062 11.8478 12.9744 11.3672 12.9744 10.845C12.9744 10.3224 13.0621 9.84163 13.2379 9.40255C13.4136 8.9636 13.6558 8.58441 13.9642 8.26655C14.2727 7.94817 14.6336 7.70041 15.0468 7.52194C15.46 7.344 15.9059 7.2547 16.3858 7.2547C16.8745 7.2547 17.2949 7.34652 17.6463 7.52923C17.9975 7.71207 18.2919 7.95533 18.5293 8.259V7.43317H20.0179V14.2566ZM16.5637 8.6582C16.2407 8.6582 15.9523 8.7165 15.6986 8.83257C15.4447 8.9493 15.2296 9.10617 15.054 9.30279C14.8782 9.50035 14.7429 9.73116 14.648 9.99733C14.5529 10.2635 14.5056 10.5457 14.5056 10.845C14.5056 11.1441 14.5528 11.4267 14.648 11.6925C14.7429 11.9585 14.8782 12.1902 15.054 12.387C15.2296 12.5841 15.4445 12.7405 15.6986 12.8573C15.9523 12.9733 16.2407 13.0316 16.5637 13.0316C16.8725 13.0316 17.1525 12.9758 17.4042 12.8642C17.6559 12.7527 17.8718 12.5996 18.0524 12.4047C18.2328 12.2101 18.3728 11.98 18.4727 11.7138C18.5723 11.4478 18.6221 11.1584 18.6221 10.845C18.6221 10.5313 18.5723 10.2417 18.4727 9.97584C18.3728 9.70966 18.2328 9.47951 18.0524 9.28464C17.872 9.09053 17.6559 8.93697 17.4042 8.82541C17.1526 8.71412 16.8725 8.6582 16.5637 8.6582ZM26.8547 9.14247C26.7506 9.08126 26.6223 9.01554 26.4704 8.94678C26.3186 8.87814 26.1497 8.81534 25.9647 8.75811C25.7793 8.70127 25.5837 8.65396 25.3771 8.61567C25.1705 8.57765 24.9604 8.55884 24.7468 8.55884C24.3385 8.55884 24.0215 8.63343 23.796 8.78315C23.5705 8.93247 23.4576 9.12869 23.4576 9.37089C23.4576 9.48947 23.4874 9.58895 23.5465 9.66966C23.6063 9.75086 23.6856 9.81725 23.7851 9.86944C23.8851 9.92191 24.0036 9.96316 24.1412 9.99412C24.279 10.025 24.4263 10.0522 24.5829 10.0756L25.2879 10.1828C26.0333 10.2919 26.6148 10.509 27.0327 10.8344C27.4509 11.1597 27.6597 11.6145 27.6597 12.1984C27.6597 12.5259 27.5894 12.8266 27.4496 13.0993C27.3094 13.3723 27.1076 13.6076 26.8441 13.8044C26.5806 14.0015 26.2554 14.1546 25.8684 14.2642C25.4816 14.3732 25.0433 14.4274 24.5544 14.4274C24.3787 14.4274 24.1744 14.417 23.942 14.3957C23.7093 14.3741 23.4624 14.3314 23.2015 14.2677C22.9402 14.2034 22.6743 14.1142 22.4037 14.0005C22.1331 13.8866 21.8741 13.7364 21.6274 13.5518L22.3182 12.4334C22.4415 12.5285 22.5757 12.6171 22.7205 12.7002C22.8656 12.7835 23.029 12.8573 23.2119 12.921C23.3947 12.9853 23.5967 13.0366 23.8173 13.0743C24.0382 13.1124 24.2887 13.1312 24.5689 13.1312C25.0816 13.1312 25.4685 13.0566 25.7297 12.907C25.9907 12.7577 26.1216 12.5546 26.1216 12.298C26.1216 12.1036 26.0264 11.9434 25.8364 11.8171C25.6463 11.6916 25.3475 11.6001 24.9391 11.5432L24.2269 11.4505C23.4672 11.346 22.8915 11.1245 22.4999 10.7844C22.1082 10.4453 21.9122 10.0001 21.9122 9.44893C21.9122 9.1116 21.9776 8.80766 22.1082 8.5375C22.2385 8.26682 22.4262 8.03761 22.6707 7.85C22.9152 7.66252 23.211 7.5177 23.5575 7.41568C23.9041 7.3134 24.296 7.26265 24.7328 7.26265C25.2693 7.26265 25.7747 7.32545 26.2499 7.45132C26.7246 7.57679 27.1401 7.75367 27.496 7.98183L26.8547 9.14247ZM33.9198 8.78632H31.3059V11.7568C31.3059 11.9843 31.3347 12.1792 31.3913 12.3407C31.4484 12.5018 31.5257 12.6341 31.6229 12.7362C31.7202 12.8384 31.8343 12.9131 31.9646 12.9604C32.0953 13.0077 32.2363 13.0316 32.3885 13.0316C32.6212 13.0316 32.8573 12.9869 33.0972 12.8962C33.3371 12.8059 33.5589 12.6969 33.7633 12.5688L34.354 13.758C34.0786 13.9431 33.7689 14.1026 33.425 14.2353C33.0804 14.3683 32.6925 14.435 32.2602 14.435C31.4863 14.435 30.8844 14.2204 30.4549 13.7905C30.025 13.3605 29.8104 12.6925 29.8104 11.7852V8.78632H28.45V7.4333H29.8104V5.3676H31.3059V7.4333H33.9198V8.78632ZM38.499 7.25484C38.9736 7.25484 39.4098 7.34175 39.806 7.51505C40.2025 7.68835 40.542 7.93294 40.8247 8.24893C41.107 8.56466 41.3276 8.94241 41.4869 9.38109C41.6458 9.82057 41.7257 10.3062 41.7257 10.838C41.7257 10.9331 41.723 11.0282 41.7184 11.1228C41.7138 11.218 41.7059 11.3079 41.6973 11.3933H36.6546C36.7019 11.7021 36.7899 11.9658 36.9181 12.1843C37.0461 12.4024 37.2007 12.5817 37.3808 12.7219C37.5613 12.8618 37.7632 12.9653 37.9863 13.0317C38.2095 13.0986 38.4422 13.1312 38.6842 13.1312C39.026 13.1312 39.369 13.0685 39.7136 12.9425C40.0582 12.817 40.3724 12.6402 40.6572 12.4121L41.3981 13.473C40.9802 13.8294 40.5373 14.0788 40.0695 14.2212C39.6016 14.3636 39.109 14.435 38.592 14.435C38.079 14.435 37.6088 14.3492 37.1817 14.1786C36.7543 14.0075 36.3863 13.7656 36.0777 13.4521C35.7692 13.1383 35.5293 12.7613 35.3584 12.3192C35.1876 11.878 35.102 11.3864 35.102 10.8453C35.102 10.3132 35.1851 9.82656 35.3511 9.3848C35.5174 8.9436 35.7501 8.5648 36.0491 8.24907C36.3484 7.93307 36.7056 7.68862 37.1212 7.51518C37.5364 7.34175 37.996 7.25484 38.499 7.25484ZM38.4708 8.58003C38.2048 8.58003 37.9687 8.62045 37.7619 8.70113C37.5555 8.78195 37.3773 8.89683 37.228 9.04641C37.0782 9.19626 36.9558 9.37394 36.861 9.58063C36.7659 9.78716 36.6998 10.0141 36.6615 10.2608H40.2015C40.1208 9.72931 39.9311 9.3159 39.6317 9.0215C39.3326 8.72723 38.9454 8.58003 38.4708 8.58003ZM46.8815 7.25484C47.1099 7.25484 47.3149 7.27047 47.4975 7.30148C47.6806 7.33234 47.8575 7.3811 48.0281 7.44722L47.6723 8.92174C47.5154 8.84104 47.3328 8.7793 47.1235 8.73664C46.9147 8.69424 46.7198 8.67291 46.5399 8.67291C46.3024 8.67291 46.0839 8.71306 45.8844 8.79388C45.6849 8.87457 45.5141 8.99302 45.3717 9.15002C45.2293 9.30663 45.1178 9.49888 45.0369 9.72691C44.9564 9.9545 44.9162 10.2137 44.9162 10.5032V14.2567H43.4277V7.4333H44.9019V8.20243C45.1298 7.87491 45.4125 7.63522 45.7493 7.48325C46.086 7.33128 46.4635 7.25484 46.8815 7.25484ZM51.9736 7.25484C52.4868 7.25484 52.9641 7.34665 53.4052 7.52936C53.8471 7.7122 54.2192 7.98434 54.5231 8.34499L53.5687 9.3636C53.3265 9.13531 53.0756 8.96095 52.815 8.83985C52.5527 8.71902 52.2586 8.65794 51.931 8.65794C51.6467 8.65794 51.3809 8.71147 51.1334 8.81839C50.8866 8.92518 50.6727 9.0745 50.4922 9.26741C50.3123 9.45981 50.1708 9.6899 50.0691 9.95782C49.9663 10.2261 49.916 10.5216 49.916 10.8449C49.916 11.1679 49.9663 11.4632 50.0691 11.7316C50.171 11.9996 50.3123 12.23 50.4922 12.4226C50.6727 12.6149 50.8866 12.7646 51.1334 12.871C51.3808 12.9783 51.6465 13.0314 51.931 13.0314C52.2586 13.0314 52.5645 12.9636 52.8495 12.8286C53.1343 12.6932 53.3868 12.5234 53.6047 12.319L54.5231 13.345C54.2106 13.7061 53.8346 13.9774 53.3987 14.1603C52.961 14.3431 52.487 14.4348 51.9738 14.4348C51.4329 14.4348 50.9412 14.3431 50.5001 14.1603C50.0584 13.9774 49.6804 13.7261 49.3673 13.4056C49.0541 13.0847 48.812 12.7061 48.6413 12.2693C48.4702 11.8322 48.3847 11.3576 48.3847 10.845C48.3847 10.332 48.4702 9.85725 48.6413 9.42017C48.812 8.98348 49.0541 8.60494 49.3673 8.28404C49.6804 7.96367 50.0584 7.7122 50.5001 7.52936C50.9411 7.34665 51.4327 7.25484 51.9736 7.25484ZM62.4578 14.2566H60.9689V13.4377C60.7316 13.7416 60.4371 13.9835 60.0861 14.164C59.7346 14.3447 59.3144 14.4349 58.8252 14.4349C58.3457 14.4349 57.8995 14.3457 57.4864 14.1678C57.0733 13.9896 56.7125 13.7416 56.404 13.4232C56.0948 13.1055 55.8532 12.7267 55.6774 12.2872C55.5022 11.8478 55.4135 11.3672 55.4135 10.845C55.4135 10.3224 55.5022 9.84163 55.6774 9.40255C55.8532 8.9636 56.0948 8.58441 56.404 8.26655C56.7125 7.94817 57.0733 7.70041 57.4864 7.52194C57.8995 7.344 58.3457 7.2547 58.8252 7.2547C59.3144 7.2547 59.7346 7.34652 60.0861 7.52923C60.4371 7.71207 60.7316 7.95533 60.9689 8.259V7.43317H62.4578V14.2566ZM59.0031 8.6582C58.6804 8.6582 58.392 8.7165 58.1378 8.83257C57.8837 8.9493 57.6693 9.10617 57.4935 9.30279C57.3182 9.50035 57.1822 9.73116 57.0875 9.99733C56.9928 10.2635 56.9449 10.5457 56.9449 10.845C56.9449 11.1441 56.9928 11.4267 57.0875 11.6925C57.1827 11.9585 57.3182 12.1902 57.4935 12.387C57.6693 12.5841 57.8837 12.7405 58.1378 12.8573C58.392 12.9733 58.6804 13.0316 59.0031 13.0316C59.3117 13.0316 59.592 12.9758 59.844 12.8642C60.0954 12.7527 60.3114 12.5996 60.4921 12.4047C60.6723 12.2101 60.8121 11.98 60.9123 11.7138C61.0124 11.4478 61.0619 11.1584 61.0619 10.845C61.0619 10.5313 61.0124 10.2417 60.9123 9.97584C60.8121 9.70966 60.6723 9.47951 60.4921 9.28464C60.3114 9.09053 60.0954 8.93697 59.844 8.82541C59.592 8.71412 59.3117 8.6582 59.0031 8.6582ZM68.1052 7.25484C68.3332 7.25484 68.5384 7.27047 68.7212 7.30148C68.9041 7.33234 69.081 7.3811 69.2518 7.44722L68.8954 8.92174C68.7392 8.84104 68.5563 8.7793 68.3479 8.73664C68.1384 8.69424 67.9436 8.67291 67.7629 8.67291C67.5256 8.67291 67.3079 8.71306 67.1087 8.79388C66.9084 8.87457 66.7376 8.99302 66.5955 9.15002C66.4529 9.30663 66.3414 9.49888 66.2608 9.72691C66.1797 9.9545 66.1395 10.2137 66.1395 10.5032V14.2567H64.6516V7.4333H66.1253V8.20243C66.3533 7.87491 66.6358 7.63522 66.9727 7.48325C67.3101 7.33128 67.6872 7.25484 68.1052 7.25484ZM72.9912 7.25484C73.4799 7.25484 73.9 7.34665 74.2516 7.52936C74.6031 7.7122 74.897 7.95546 75.1348 8.25913V4H76.6233V14.2566H75.1348V13.4377C74.897 13.7416 74.6031 13.9835 74.2516 14.164C73.9 14.3447 73.4804 14.4349 72.9912 14.4349C72.5112 14.4349 72.0649 14.3457 71.6518 14.1678C71.2393 13.9896 70.878 13.7416 70.5699 13.4232C70.2614 13.1055 70.0192 12.7267 69.8429 12.2872C69.6676 11.8478 69.5795 11.3672 69.5795 10.845C69.5795 10.3224 69.6676 9.84163 69.8429 9.40255C70.0192 8.9636 70.2614 8.58441 70.5699 8.26655C70.878 7.94817 71.2393 7.70041 71.6518 7.52194C72.0649 7.34414 72.5112 7.25484 72.9912 7.25484ZM73.1691 8.6582C72.8459 8.6582 72.5574 8.7165 72.3038 8.83257C72.0497 8.9493 71.8353 9.10617 71.6595 9.30279C71.4842 9.50035 71.3482 9.73116 71.2529 9.99733C71.1588 10.2635 71.1109 10.5457 71.1109 10.845C71.1109 11.1441 71.1588 11.4267 71.2529 11.6925C71.3482 11.9585 71.4842 12.1902 71.6595 12.387C71.8353 12.5841 72.0497 12.7405 72.3038 12.8573C72.5574 12.9733 72.8459 13.0316 73.1691 13.0316C73.4772 13.0316 73.7574 12.9758 74.0099 12.8642C74.2608 12.7527 74.4769 12.5996 74.6576 12.4047C74.8382 12.2101 74.9781 11.98 75.0777 11.7138C75.1778 11.4478 75.2279 11.1584 75.2279 10.845C75.2279 10.5313 75.1778 10.2417 75.0777 9.97584C74.9781 9.70966 74.8382 9.47951 74.6576 9.28464C74.4774 9.09053 74.2614 8.93697 74.0099 8.82541C73.7574 8.71412 73.4772 8.6582 73.1691 8.6582Z" fill="#999999"/>
</g>
</svg>
