<svg width="130" height="52" viewBox="0 0 130 52" fill="none" xmlns="http://www.w3.org/2000/svg">
<mask id="mask0_13167_14946" style="mask-type:luminance" maskUnits="userSpaceOnUse" x="0" y="0" width="130" height="52">
<path d="M130 0H0V52H130V0Z" fill="white"/>
</mask>
<g mask="url(#mask0_13167_14946)">
<path d="M11.0799 33.046C10.4101 32.6222 9.71113 32.293 8.98215 32.0582C8.25325 31.8242 7.49071 31.7072 6.69482 31.7072C6.17429 31.7072 5.69808 31.7614 5.26687 31.8693C4.83522 31.9763 4.46516 32.1326 4.15644 32.3382C3.84815 32.5431 3.60791 32.7878 3.43697 33.0738C3.26583 33.3603 3.18014 33.6828 3.18014 34.0395C3.18014 34.3663 3.25484 34.6452 3.4036 34.8761C3.55236 35.1068 3.76634 35.3022 4.04536 35.4621C4.32393 35.6223 4.66451 35.7536 5.066 35.8581C5.46793 35.9624 5.92153 36.0519 6.42702 36.1262L7.50945 36.271C8.14151 36.3604 8.75917 36.4983 9.36154 36.6845C9.96388 36.87 10.5012 37.13 10.9737 37.4652C11.4459 37.7993 11.8256 38.2208 12.1117 38.726C12.3985 39.2316 12.5417 39.8455 12.5417 40.5672C12.5417 41.3632 12.3742 42.0662 12.0394 42.6762C11.7042 43.2861 11.2506 43.7994 10.6782 44.2153C10.1048 44.6327 9.44114 44.9491 8.68662 45.1646C7.93119 45.3801 7.12991 45.488 6.28191 45.488C5.75339 45.488 5.2053 45.4438 4.6363 45.3534C4.06731 45.265 3.50543 45.1331 2.95129 44.9584C2.39738 44.7829 1.86714 44.5655 1.361 44.3055C0.855091 44.0448 0.4015 43.74 0 43.3898L1.37243 41.3818C1.64065 41.6265 1.96186 41.8545 2.33774 42.0628C2.71299 42.271 3.11641 42.453 3.54806 42.6091C3.97969 42.7646 4.42747 42.8868 4.89249 42.972C5.35728 43.0573 5.81713 43.1009 6.27029 43.1009C6.78395 43.1009 7.26167 43.0489 7.70429 42.9442C8.14712 42.84 8.53203 42.687 8.85905 42.4864C9.18609 42.2859 9.44484 42.0418 9.63445 41.7554C9.82459 41.4695 9.91931 41.1479 9.91931 40.7911C9.91931 40.1802 9.61941 39.7155 9.02115 39.3955C8.42203 39.0757 7.55014 38.8375 6.40463 38.6812L5.1885 38.5143C4.60811 38.4321 4.04084 38.2985 3.48691 38.1123C2.933 37.928 2.43828 37.6652 2.00276 37.3261C1.56748 36.9878 1.21784 36.564 0.954119 36.0542C0.689546 35.5454 0.55758 34.9261 0.55758 34.1965C0.55758 33.4152 0.719687 32.7217 1.04348 32.1147C1.36661 31.5091 1.8075 30.9993 2.3653 30.5862C2.9231 30.1728 3.57604 29.8587 4.32351 29.6437C5.07096 29.4273 5.86857 29.3197 6.717 29.3197C7.8552 29.3197 8.88337 29.47 9.80159 29.7716C10.7204 30.0727 11.5742 30.4839 12.363 31.0042L11.0799 33.046ZM19.5931 34.2402C20.3365 34.2402 21.0192 34.3766 21.6403 34.6473C22.2612 34.9198 22.7929 35.3023 23.2357 35.7973C23.6784 36.2921 24.0242 36.8834 24.2736 37.5711C24.5222 38.2597 24.6472 39.0202 24.6472 39.8535C24.6472 40.002 24.6433 40.151 24.6361 40.2997C24.6282 40.4482 24.6175 40.5897 24.6023 40.7233H16.7029C16.7771 41.2072 16.9151 41.62 17.1155 41.9619C17.316 42.3043 17.5583 42.5852 17.8409 42.8049C18.1238 43.0242 18.4395 43.1862 18.7899 43.2895C19.1389 43.394 19.5033 43.4458 19.8829 43.4458C20.4188 43.4458 20.9555 43.3482 21.495 43.1511C22.0347 42.9538 22.5272 42.6764 22.9734 42.3196L24.1337 43.9818C23.4795 44.5401 22.7861 44.9311 22.0532 45.1532C21.3203 45.3772 20.5489 45.4885 19.7379 45.4885C18.9343 45.4885 18.1977 45.3539 17.5287 45.0873C16.8594 44.8193 16.2828 44.4397 15.7992 43.9493C15.3155 43.458 14.9399 42.8662 14.6725 42.1743C14.4047 41.4824 14.2706 40.7129 14.2706 39.8645C14.2706 39.0314 14.4006 38.2684 14.6611 37.5773C14.9214 36.8854 15.2861 36.2923 15.7542 35.7975C16.2232 35.3025 16.7825 34.92 17.434 34.6476C18.0845 34.3764 18.8043 34.2402 19.5931 34.2402ZM19.5479 36.3158C19.1315 36.3158 18.7618 36.3784 18.4381 36.5048C18.1147 36.6325 17.8352 36.8123 17.6012 37.0471C17.3672 37.2811 17.1753 37.5601 17.0269 37.8835C16.8777 38.207 16.7737 38.5619 16.7143 38.9491H22.2594C22.1328 38.1158 21.8356 37.4683 21.3668 37.0078C20.8981 36.5467 20.292 36.3158 19.5479 36.3158ZM31.9441 34.2402C32.7475 34.2402 33.495 34.3832 34.1864 34.6697C34.8788 34.9564 35.4624 35.3824 35.9388 35.9476L34.4432 37.5427C34.0642 37.186 33.6698 36.9125 33.2608 36.7229C32.8518 36.5333 32.3906 36.4388 31.8773 36.4388C31.4309 36.4388 31.0139 36.5224 30.6274 36.6894C30.2406 36.8565 29.9058 37.0914 29.6234 37.3922C29.3405 37.6932 29.1192 38.0549 28.9593 38.4745C28.7997 38.8957 28.7194 39.3585 28.7194 39.8642C28.7194 40.3696 28.7997 40.8337 28.9593 41.2536C29.1192 41.6741 29.3405 42.035 29.6234 42.336C29.9058 42.6366 30.2404 42.8706 30.6274 43.0388C31.0139 43.2058 31.4309 43.2894 31.8773 43.2894C32.3903 43.2894 32.87 43.1834 33.3162 42.9718C33.7628 42.7604 34.1572 42.4936 34.4991 42.1736L35.9388 43.7808C35.4479 44.3456 34.8601 44.772 34.1757 45.0585C33.4912 45.3451 32.7478 45.488 31.9443 45.488C31.0962 45.488 30.3262 45.3451 29.6343 45.0585C28.943 44.772 28.3515 44.3775 27.8605 43.876C27.3697 43.3739 26.9903 42.7806 26.7225 42.0953C26.4547 41.4117 26.3205 40.6681 26.3205 39.8642C26.3205 39.0613 26.4547 38.3165 26.7225 37.6321C26.9903 36.9476 27.3697 36.3542 27.8605 35.853C28.3512 35.3507 28.9429 34.9564 29.6343 34.6697C30.3261 34.3832 31.096 34.2402 31.9441 34.2402ZM47.8992 40.6788C47.8992 41.5262 47.7579 42.2557 47.4753 42.8656C47.1924 43.4756 46.8203 43.9748 46.3593 44.3614C45.898 44.7484 45.3702 45.0325 44.7751 45.2145C44.1799 45.397 43.5698 45.488 42.9449 45.488C42.3202 45.488 41.7103 45.397 41.1153 45.2145C40.5199 45.0325 39.9903 44.7484 39.525 44.3614C39.06 43.9748 38.6882 43.4756 38.4095 42.8656C38.13 42.2557 37.991 41.5261 37.991 40.6788V34.5194H40.3338V40.4667C40.3338 40.9796 40.4012 41.4178 40.5345 41.7778C40.6687 42.1389 40.853 42.4305 41.0872 42.6541C41.3215 42.8766 41.5984 43.0388 41.9182 43.139C42.2383 43.2393 42.5804 43.2894 42.9447 43.2894C43.3092 43.2894 43.6511 43.2393 43.9717 43.139C44.2912 43.0388 44.5682 42.8766 44.8027 42.6541C45.037 42.4305 45.2211 42.1385 45.3549 41.7778C45.4885 41.4178 45.5559 40.9796 45.5559 40.4667V34.5194H47.8988L47.8992 40.6788ZM56.412 34.2402C56.7691 34.2402 57.0903 34.2643 57.3771 34.3129C57.6636 34.3605 57.9407 34.4372 58.2085 34.541L57.6508 36.8516C57.4051 36.7244 57.1184 36.6285 56.7918 36.5607C56.4642 36.4938 56.1589 36.4605 55.8763 36.4605C55.5046 36.4605 55.1629 36.524 54.8503 36.6503C54.5378 36.7772 54.2695 36.9627 54.0469 37.2083C53.8234 37.454 53.6489 37.7551 53.522 38.1115C53.3954 38.4694 53.3323 38.8746 53.3323 39.3284V45.2088H51.0001V34.5194H53.3102V35.7243C53.6669 35.2103 54.1097 34.8351 54.6379 34.5972C55.1661 34.3588 55.7578 34.2402 56.412 34.2402ZM64.2453 34.2402C64.9891 34.2402 65.6716 34.3766 66.2927 34.6473C66.9144 34.9198 67.4458 35.3023 67.8886 35.7973C68.3306 36.2921 68.6762 36.8834 68.9263 37.5711C69.1743 38.2597 69.2989 39.0202 69.2989 39.8535C69.2989 40.002 69.2952 40.151 69.2889 40.2997C69.2804 40.4482 69.2695 40.5897 69.2546 40.7233H61.355C61.4292 41.2072 61.5669 41.62 61.7677 41.9619C61.9684 42.3043 62.2105 42.5852 62.4928 42.8049C62.7757 43.0242 63.0911 43.1862 63.4413 43.2895C63.7905 43.394 64.1556 43.4458 64.5341 43.4458C65.0707 43.4458 65.6079 43.3482 66.1468 43.1511C66.6868 42.9538 67.1788 42.6764 67.6258 42.3196L68.7854 43.9818C68.1312 44.5401 67.4375 44.9311 66.7049 45.1532C65.9722 45.3772 65.201 45.4885 64.3896 45.4885C63.5867 45.4885 62.8498 45.3539 62.1801 45.0873C61.511 44.8193 60.9344 44.4397 60.4511 43.9493C59.967 43.458 59.5917 42.8662 59.3242 42.1743C59.0561 41.4824 58.9223 40.7129 58.9223 39.8645C58.9223 39.0314 59.0523 38.2684 59.3128 37.5773C59.5731 36.8854 59.9373 36.2923 60.4063 35.7975C60.8749 35.3025 61.4344 34.92 62.0852 34.6476C62.7367 34.3764 63.4566 34.2402 64.2453 34.2402ZM64.2002 36.3158C63.784 36.3158 63.414 36.3784 63.09 36.5048C62.7669 36.6325 62.4874 36.8123 62.2529 37.0471C62.0189 37.2811 61.8272 37.5601 61.6788 37.8835C61.5298 38.207 61.4257 38.5619 61.3663 38.9491H66.9125C66.7852 38.1158 66.488 37.4683 66.0194 37.0078C65.5504 36.5467 64.9449 36.3158 64.2002 36.3158ZM79.3634 29.2965C80.0553 29.2965 80.7254 29.3707 81.3719 29.5194C82.0198 29.6691 82.6213 29.8838 83.1794 30.1672C83.7367 30.4504 84.2441 30.7939 84.697 31.2002C85.1505 31.6053 85.5309 32.0601 85.8349 32.5665L83.7268 33.9719C83.2496 33.2724 82.6389 32.7225 81.8912 32.3208C81.1424 31.9197 80.3012 31.719 79.3635 31.719C78.5671 31.719 77.831 31.8562 77.1544 32.131C76.4772 32.4067 75.8933 32.7936 75.4019 33.2919C74.9115 33.7898 74.5264 34.3892 74.2482 35.0885C73.969 35.788 73.8294 36.5575 73.8294 37.3982C73.8294 38.239 73.969 39.0094 74.2482 39.7082C74.5264 40.4077 74.9115 41.0059 75.4019 41.5049C75.8932 42.0038 76.4772 42.3899 77.1544 42.6649C77.831 42.9405 78.5671 43.0778 79.3635 43.0778C80.2927 43.0778 81.1281 42.8813 81.868 42.4869C82.609 42.0925 83.2241 41.5426 83.7153 40.8356L85.769 42.3423C85.4339 42.8327 85.0423 43.2715 84.5918 43.6584C84.1422 44.0453 83.6433 44.3762 83.0958 44.6518C82.5487 44.9267 81.9611 45.1373 81.3329 45.2823C80.7038 45.4275 80.048 45.5003 79.3639 45.5003C78.1661 45.5003 77.065 45.2972 76.0615 44.8911C75.0573 44.4863 74.1939 43.9223 73.4731 43.2013C72.7509 42.4791 72.1898 41.6244 71.7875 40.6349C71.3867 39.6445 71.1852 38.5669 71.1852 37.3984C71.1852 36.23 71.3867 35.1522 71.7875 34.1621C72.1898 33.1724 72.7511 32.3172 73.4731 31.5959C74.1943 30.8745 75.0573 30.3113 76.0615 29.9062C77.0648 29.4994 78.1659 29.2965 79.3634 29.2965ZM93.1439 34.2402C93.969 34.2402 94.7331 34.3832 95.4353 34.6697C96.1392 34.9564 96.7468 35.3507 97.2597 35.853C97.7735 36.3542 98.175 36.9476 98.4651 37.6321C98.7551 38.3165 98.9001 39.0613 98.9001 39.8642C98.9001 40.6681 98.7551 41.4117 98.4651 42.0953C98.175 42.7806 97.7735 43.3739 97.2597 43.876C96.7468 44.3775 96.1392 44.772 95.4353 45.0585C94.7331 45.3451 93.969 45.488 93.1439 45.488C92.3171 45.488 91.553 45.3451 90.8499 45.0585C90.1469 44.772 89.5411 44.3775 89.0316 43.876C88.5214 43.3739 88.1229 42.7806 87.8321 42.0953C87.5422 41.4117 87.3977 40.6681 87.3977 39.8642C87.3977 39.0613 87.5422 38.3165 87.8321 37.6321C88.1231 36.9476 88.5214 36.3542 89.0316 35.853C89.5411 35.3507 90.1469 34.9564 90.8499 34.6697C91.553 34.3832 92.3171 34.2402 93.1439 34.2402ZM93.1439 36.4388C92.6663 36.4388 92.2241 36.5224 91.8148 36.6894C91.4071 36.8565 91.0523 37.0914 90.7553 37.3922C90.4573 37.6932 90.2229 38.0549 90.0521 38.4745C89.8815 38.8957 89.7957 39.3585 89.7957 39.8642C89.7957 40.3696 89.8815 40.8337 90.0521 41.2536C90.2229 41.6741 90.4573 42.035 90.7553 42.336C91.0523 42.6366 91.4061 42.8706 91.8148 43.0388C92.2241 43.2058 92.6663 43.2894 93.1439 43.2894C93.6197 43.2894 94.061 43.2058 94.4704 43.0388C94.879 42.8709 95.2354 42.6368 95.536 42.336C95.8376 42.035 96.0729 41.6741 96.2453 41.2536C96.416 40.8337 96.5018 40.3696 96.5018 39.8642C96.5018 39.3585 96.416 38.8957 96.2453 38.4745C96.0729 38.0549 95.8376 37.6932 95.536 37.3922C95.2354 37.0918 94.879 36.8568 94.4704 36.6894C94.061 36.5222 93.6197 36.4388 93.1439 36.4388ZM105.918 34.2402C106.685 34.2402 107.343 34.3832 107.893 34.6697C108.444 34.9564 108.905 35.3381 109.278 35.8135V29.1402H111.61V45.2088H109.278V43.9262C108.906 44.4018 108.444 44.7819 107.893 45.0643C107.343 45.3469 106.685 45.488 105.918 45.488C105.168 45.488 104.468 45.3494 103.822 45.0694C103.174 44.7902 102.609 44.4018 102.125 43.903C101.642 43.4055 101.262 42.8124 100.987 42.1237C100.711 41.4359 100.574 40.6822 100.574 39.8642C100.574 39.046 100.711 38.2922 100.987 37.6045C101.262 36.9169 101.642 36.3227 102.125 35.8244C102.609 35.3264 103.174 34.9378 103.822 34.6588C104.468 34.3798 105.168 34.2402 105.918 34.2402ZM106.198 36.4388C105.691 36.4388 105.24 36.53 104.842 36.7112C104.444 36.8942 104.108 37.1399 103.832 37.4481C103.557 37.7567 103.345 38.1193 103.196 38.5364C103.048 38.9534 102.973 39.3954 102.973 39.8643C102.973 40.3323 103.048 40.7753 103.196 41.1923C103.345 41.6093 103.557 41.972 103.832 42.2804C104.108 42.5888 104.444 42.8344 104.842 43.0173C105.24 43.1995 105.691 43.2898 106.198 43.2898C106.681 43.2898 107.119 43.2031 107.515 43.0272C107.909 42.8534 108.248 42.6129 108.53 42.3079C108.813 42.0038 109.031 41.6427 109.188 41.2259C109.343 40.8094 109.422 40.3559 109.422 39.8645C109.422 39.3741 109.343 38.9194 109.188 38.5032C109.031 38.0861 108.813 37.7263 108.53 37.4213C108.248 37.1161 107.909 36.8763 107.515 36.701C107.119 36.5264 106.681 36.4388 106.198 36.4388ZM119.376 34.2402C120.119 34.2402 120.801 34.3766 121.422 34.6473C122.043 34.9198 122.576 35.3023 123.018 35.7973C123.461 36.2921 123.806 36.8834 124.056 37.5711C124.305 38.2597 124.43 39.0202 124.43 39.8535C124.43 40.002 124.424 40.151 124.418 40.2997C124.411 40.4482 124.399 40.5897 124.384 40.7233H116.486C116.559 41.2072 116.697 41.62 116.898 41.9619C117.099 42.3043 117.341 42.5852 117.624 42.8049C117.906 43.0242 118.222 43.1862 118.572 43.2895C118.921 43.394 119.286 43.4458 119.665 43.4458C120.202 43.4458 120.738 43.3482 121.277 43.1511C121.816 42.9538 122.309 42.6764 122.756 42.3196L123.916 43.9818C123.26 44.5401 122.567 44.9311 121.834 45.1532C121.103 45.3772 120.332 45.4885 119.521 45.4885C118.718 45.4885 117.98 45.3539 117.311 45.0873C116.641 44.8193 116.064 44.4397 115.581 43.9493C115.098 43.458 114.722 42.8662 114.455 42.1743C114.187 41.4824 114.054 40.7129 114.054 39.8645C114.054 39.0314 114.183 38.2684 114.444 37.5773C114.704 36.8854 115.068 36.2923 115.537 35.7975C116.006 35.3025 116.565 34.92 117.216 34.6476C117.868 34.3764 118.587 34.2402 119.376 34.2402ZM119.33 36.3158C118.914 36.3158 118.544 36.3784 118.22 36.5048C117.897 36.6325 117.618 36.8123 117.383 37.0471C117.149 37.2811 116.958 37.5601 116.809 37.8835C116.66 38.207 116.555 38.5619 116.496 38.9491H122.041C121.915 38.1158 121.618 37.4683 121.15 37.0078C120.681 36.5467 120.074 36.3158 119.33 36.3158Z" fill="#AEAEAE"/>
<path d="M18.7576 23.167H16.1418V9.83374L11.4087 21.5811H8.65434L3.92072 9.96076V23.167H1.30505V6.96334H5.32135L10.0317 18.5375L14.7419 6.96334H18.7576V23.167ZM32.5291 23.167H30.1101V21.8363C29.7244 22.3301 29.2463 22.7232 28.6753 23.0165C28.1044 23.3101 27.4211 23.4567 26.6269 23.4567C25.8471 23.4567 25.1225 23.3118 24.4511 23.0227C23.7796 22.7331 23.1932 22.3301 22.6918 21.8127C22.1904 21.2964 21.797 20.6809 21.5116 19.9667C21.2258 19.2527 21.0834 18.4717 21.0834 17.6231C21.0834 16.7739 21.2259 15.9926 21.5116 15.2791C21.7971 14.5658 22.1907 13.9497 22.6918 13.4331C23.1932 12.9158 23.7796 12.5132 24.4511 12.2232C25.1225 11.934 25.8471 11.7889 26.6269 11.7889C27.4211 11.7889 28.1042 11.9381 28.6753 12.235C29.246 12.5321 29.7244 12.9274 30.1101 13.4209V12.0789H32.5291V23.167ZM26.916 14.0696C26.3912 14.0696 25.9225 14.1643 25.5102 14.3529C25.0977 14.5426 24.7481 14.7975 24.4628 15.117C24.1771 15.4381 23.9572 15.8131 23.803 16.2457C23.6485 16.6782 23.5716 17.1368 23.5716 17.6231C23.5716 18.1092 23.6483 18.5684 23.803 19.0003C23.9572 19.4326 24.1771 19.8091 24.4628 20.1289C24.7481 20.4492 25.0973 20.7033 25.5102 20.8931C25.9225 21.0816 26.3912 21.1763 26.916 21.1763C27.4178 21.1763 27.8728 21.0857 28.2818 20.9043C28.6909 20.7231 29.0417 20.4743 29.3352 20.1576C29.6283 19.8414 29.8558 19.4675 30.0182 19.0349C30.18 18.6027 30.2609 18.1324 30.2609 17.6231C30.2609 17.1134 30.18 16.6428 30.0182 16.2107C29.8558 15.7782 29.6283 15.4042 29.3352 15.0875C29.042 14.7721 28.6909 14.5226 28.2818 14.3413C27.873 14.1604 27.4178 14.0696 26.916 14.0696ZM43.6389 14.8565C43.4697 14.757 43.2613 14.6503 43.0144 14.5385C42.7677 14.427 42.4933 14.3249 42.1927 14.2319C41.8914 14.1396 41.5735 14.0627 41.2378 14.0005C40.9021 13.9387 40.5607 13.9081 40.2136 13.9081C39.5501 13.9081 39.035 14.0293 38.6685 14.2726C38.3021 14.5153 38.1186 14.8341 38.1186 15.2277C38.1186 15.4204 38.167 15.582 38.2631 15.7132C38.3603 15.8451 38.4891 15.953 38.6508 16.0378C38.8133 16.1231 39.0059 16.1901 39.2295 16.2404C39.4534 16.2906 39.6928 16.3348 39.9472 16.3728L41.0929 16.547C42.3041 16.7243 43.2491 17.0771 43.9282 17.6059C44.6077 18.1345 44.947 18.8736 44.947 19.8224C44.947 20.3546 44.8328 20.8432 44.6056 21.2864C44.3778 21.73 44.0499 22.1123 43.6217 22.4321C43.1935 22.7524 42.665 23.0012 42.0362 23.1793C41.4076 23.3564 40.6954 23.4445 39.9009 23.4445C39.6154 23.4445 39.2834 23.4276 38.9058 23.393C38.5276 23.3579 38.1264 23.2885 37.7025 23.185C37.2778 23.0805 36.8458 22.9356 36.406 22.7508C35.9663 22.5657 35.5454 22.3216 35.1445 22.0217L36.2671 20.2043C36.4675 20.3588 36.6855 20.5028 36.9208 20.6378C37.1566 20.7732 37.4221 20.8931 37.7194 20.9966C38.0164 21.1011 38.3447 21.1845 38.7031 21.2457C39.0621 21.3076 39.4692 21.3382 39.9245 21.3382C40.7576 21.3382 41.3863 21.217 41.8108 20.9739C42.2349 20.7313 42.4476 20.4012 42.4476 19.9842C42.4476 19.6683 42.2929 19.408 41.9842 19.2028C41.6753 18.9988 41.1897 18.8502 40.5261 18.7577L39.3687 18.6071C38.1342 18.4372 37.1987 18.0773 36.5624 17.5246C35.9258 16.9736 35.6073 16.2502 35.6073 15.3545C35.6073 14.8063 35.7136 14.3124 35.9258 13.8734C36.1376 13.4336 36.4426 13.0611 36.8399 12.7562C37.2372 12.4516 37.7179 12.2163 38.281 12.0505C38.8442 11.8843 39.481 11.8018 40.1908 11.8018C41.0626 11.8018 41.8839 11.9039 42.6561 12.1084C43.4275 12.3123 44.1027 12.5997 44.681 12.9705L43.6389 14.8565ZM55.1197 14.2778H50.8721V19.1048C50.8721 19.4745 50.9189 19.7912 51.0109 20.0536C51.1037 20.3154 51.2293 20.5304 51.3872 20.6963C51.5453 20.8624 51.7308 20.9838 51.9425 21.0606C52.1549 21.1375 52.384 21.1763 52.6313 21.1763C53.0095 21.1763 53.3931 21.1037 53.783 20.9563C54.1728 20.8096 54.5332 20.6325 54.8654 20.4243L55.8253 22.3567C55.3777 22.6575 54.8745 22.9167 54.3156 23.1324C53.7557 23.3485 53.1253 23.4569 52.4228 23.4569C51.1653 23.4569 50.1872 23.1081 49.4892 22.4096C48.7906 21.7108 48.4419 20.6253 48.4419 19.1509V14.2778H46.2313V12.0791H48.4419V8.72235H50.8721V12.0791H55.1197V14.2778ZM62.5609 11.7891C63.3321 11.7891 64.0409 11.9303 64.6848 12.212C65.3291 12.4936 65.8808 12.891 66.3401 13.4045C66.7989 13.9176 67.1574 14.5314 67.4162 15.2443C67.6744 15.9584 67.8043 16.7476 67.8043 17.6117C67.8043 17.7663 67.7999 17.9208 67.7924 18.0745C67.7849 18.2292 67.7721 18.3753 67.7581 18.5141H59.5637C59.6406 19.0159 59.7836 19.4444 59.9919 19.7995C60.1999 20.1539 60.4511 20.4453 60.7438 20.6731C61.0371 20.9004 61.3652 21.0686 61.7278 21.1765C62.0905 21.2852 62.4686 21.3382 62.8618 21.3382C63.4173 21.3382 63.9746 21.2363 64.5346 21.0316C65.0946 20.8276 65.6052 20.5403 66.068 20.1697L67.2719 21.8936C66.5928 22.4728 65.8731 22.878 65.113 23.1094C64.3526 23.3408 63.5521 23.4569 62.712 23.4569C61.8784 23.4569 61.1143 23.3174 60.4203 23.0402C59.7258 22.7622 59.1278 22.3691 58.6263 21.8597C58.125 21.3497 57.7351 20.7371 57.4574 20.0187C57.1799 19.3017 57.0408 18.5029 57.0408 17.6236C57.0408 16.7589 57.1758 15.9682 57.4456 15.2503C57.7158 14.5333 58.0939 13.9178 58.5798 13.4047C59.0662 12.8912 59.6466 12.494 60.322 12.2122C60.9967 11.9303 61.7435 11.7891 62.5609 11.7891ZM62.5151 13.9425C62.0828 13.9425 61.6992 14.0082 61.3631 14.1393C61.0277 14.2707 60.7381 14.4573 60.4955 14.7004C60.2521 14.9439 60.0532 15.2327 59.8991 15.5685C59.7446 15.9041 59.6372 16.2729 59.575 16.6738H65.3275C65.1963 15.8101 64.8881 15.1383 64.4015 14.6599C63.9155 14.1817 63.2863 13.9425 62.5151 13.9425ZM76.1824 11.7891C76.5536 11.7891 76.8867 11.8145 77.1835 11.8649C77.481 11.9151 77.7684 11.9943 78.0457 12.1017L77.4675 14.4978C77.2125 14.3667 76.9158 14.2664 76.5757 14.197C76.2364 14.1281 75.9197 14.0935 75.6274 14.0935C75.2414 14.0935 74.8864 14.1587 74.5622 14.2901C74.238 14.4212 73.9604 14.6137 73.729 14.8688C73.4976 15.1233 73.3164 15.4357 73.185 15.8062C73.0542 16.1761 72.9888 16.5973 72.9888 17.0677V23.1671H70.57V12.0791H72.9656V13.3289C73.3359 12.7967 73.7953 12.4072 74.3426 12.1603C74.8898 11.9133 75.5032 11.7891 76.1824 11.7891ZM84.4571 11.7891C85.2911 11.7891 86.0667 11.9383 86.7835 12.2352C87.5016 12.5323 88.1062 12.9746 88.6001 13.5606L87.0491 15.2158C86.6556 14.8449 86.2479 14.5615 85.8244 14.3648C85.3981 14.1684 84.9202 14.0692 84.3879 14.0692C83.9259 14.0692 83.494 14.1561 83.0918 14.3299C82.6907 14.5034 82.3431 14.7461 82.0498 15.0595C81.7575 15.3722 81.5276 15.7461 81.3623 16.1815C81.1953 16.6174 81.1135 17.0976 81.1135 17.623C81.1135 18.1478 81.1953 18.6277 81.3623 19.0638C81.5279 19.4993 81.7575 19.8737 82.0498 20.1867C82.3431 20.4992 82.6907 20.7425 83.0918 20.9154C83.4938 21.0897 83.9256 21.176 84.3879 21.176C84.9202 21.176 85.4173 21.0658 85.8804 20.8465C86.3433 20.6264 86.7536 20.3505 87.1077 20.0184L88.6001 21.6856C88.0922 22.2724 87.4812 22.7133 86.7729 23.0105C86.0616 23.3075 85.2914 23.4565 84.4574 23.4565C83.5785 23.4565 82.7795 23.3075 82.0627 23.0105C81.3449 22.7133 80.7307 22.3049 80.2219 21.7841C79.7129 21.2626 79.3195 20.6474 79.0421 19.9376C78.7641 19.2273 78.6252 18.4561 78.6252 17.6231C78.6252 16.7895 78.7641 16.018 79.0421 15.3078C79.3195 14.5982 79.7129 13.983 80.2219 13.4616C80.7307 12.941 81.3449 12.5323 82.0627 12.2352C82.7793 11.9383 83.5781 11.7891 84.4571 11.7891ZM101.494 23.167H99.0745V21.8363C98.6889 22.3301 98.2103 22.7232 97.6399 23.0165C97.0687 23.3101 96.3859 23.4567 95.591 23.4567C94.8118 23.4567 94.0867 23.3118 93.4154 23.0227C92.7441 22.7331 92.1578 22.3301 91.6565 21.8127C91.1541 21.2964 90.7615 20.6809 90.4758 19.9667C90.1911 19.2527 90.047 18.4717 90.047 17.6231C90.047 16.7739 90.1911 15.9926 90.4758 15.2791C90.7615 14.5658 91.1541 13.9497 91.6565 13.4331C92.1578 12.9158 92.7441 12.5132 93.4154 12.2232C94.0867 11.934 94.8118 11.7889 95.591 11.7889C96.3859 11.7889 97.0687 11.9381 97.6399 12.235C98.2103 12.5321 98.6889 12.9274 99.0745 13.4209V12.0789H101.494V23.167ZM95.8801 14.0696C95.3557 14.0696 94.887 14.1643 94.4739 14.3529C94.061 14.5426 93.7126 14.7975 93.427 15.117C93.1421 15.4381 92.9211 15.8131 92.7672 16.2457C92.6133 16.6782 92.5355 17.1368 92.5355 17.6231C92.5355 18.1092 92.6133 18.5684 92.7672 19.0003C92.9219 19.4326 93.1421 19.8091 93.427 20.1289C93.7126 20.4492 94.061 20.7033 94.4739 20.8931C94.887 21.0816 95.3557 21.1763 95.8801 21.1763C96.3815 21.1763 96.837 21.0857 97.2465 20.9043C97.655 20.7231 98.006 20.4743 98.2997 20.1576C98.5925 19.8414 98.8197 19.4675 98.9825 19.0349C99.1452 18.6027 99.2256 18.1324 99.2256 17.6231C99.2256 17.1134 99.1452 16.6428 98.9825 16.2107C98.8197 15.7782 98.5925 15.4042 98.2997 15.0875C98.006 14.7721 97.655 14.5226 97.2465 14.3413C96.837 14.1604 96.3815 14.0696 95.8801 14.0696ZM110.671 11.7891C111.041 11.7891 111.375 11.8145 111.672 11.8649C111.969 11.9151 112.257 11.9943 112.534 12.1017L111.955 14.4978C111.701 14.3667 111.404 14.2664 111.065 14.197C110.725 14.1281 110.408 14.0935 110.115 14.0935C109.729 14.0935 109.375 14.1587 109.052 14.2901C108.726 14.4212 108.449 14.6137 108.218 14.8688C107.986 15.1233 107.805 15.4357 107.674 15.8062C107.542 16.1761 107.477 16.5973 107.477 17.0677V23.1671H105.059V12.0791H107.454V13.3289C107.824 12.7967 108.283 12.4072 108.831 12.1603C109.379 11.9133 109.992 11.7891 110.671 11.7891ZM118.611 11.7891C119.405 11.7891 120.088 11.9383 120.659 12.2352C121.23 12.5323 121.708 12.9276 122.094 13.4211V6.5H124.513V23.167H122.094V21.8363C121.708 22.3301 121.23 22.7232 120.659 23.0165C120.088 23.3101 119.406 23.4567 118.611 23.4567C117.831 23.4567 117.105 23.3118 116.434 23.0227C115.764 22.7331 115.177 22.3301 114.676 21.8127C114.175 21.2964 113.781 20.6809 113.495 19.9667C113.21 19.2527 113.067 18.4717 113.067 17.6231C113.067 16.7739 113.21 15.9926 113.495 15.2791C113.781 14.5658 114.175 13.9497 114.676 13.4331C115.177 12.9158 115.764 12.5132 116.434 12.2232C117.105 11.9342 117.831 11.7891 118.611 11.7891ZM118.9 14.0696C118.375 14.0696 117.906 14.1643 117.494 14.3529C117.081 14.5426 116.732 14.7975 116.447 15.117C116.162 15.4381 115.941 15.8131 115.786 16.2457C115.633 16.6782 115.555 17.1368 115.555 17.6231C115.555 18.1092 115.633 18.5684 115.786 19.0003C115.941 19.4326 116.162 19.8091 116.447 20.1289C116.732 20.4492 117.081 20.7033 117.494 20.8931C117.906 21.0816 118.375 21.1763 118.9 21.1763C119.4 21.1763 119.856 21.0857 120.266 20.9043C120.674 20.7231 121.025 20.4743 121.319 20.1576C121.612 19.8414 121.839 19.4675 122.001 19.0349C122.164 18.6027 122.245 18.1324 122.245 17.6231C122.245 17.1134 122.164 16.6428 122.001 16.2107C121.839 15.7782 121.612 15.4042 121.319 15.0875C121.026 14.7721 120.675 14.5226 120.266 14.3413C119.856 14.1604 119.4 14.0696 118.9 14.0696Z" fill="#AEAEAE"/>
</g>
</svg>
