<svg width="68" height="32" viewBox="0 0 68 32" fill="none" xmlns="http://www.w3.org/2000/svg">
<path fill-rule="evenodd" clip-rule="evenodd" d="M0 1.52588e-05H30.1901C30.5387 0.0503862 30.8923 0.041991 31.2419 0.0852583C33.8153 0.335175 36.3103 1.32258 38.3712 2.89247C40.2266 4.29317 41.7373 6.15302 42.7255 8.26536C43.6721 10.2763 44.1359 12.5159 44.0713 14.7406C46.9338 14.7393 49.7963 14.7399 52.6598 14.7399C53.215 14.7451 53.7702 14.7257 54.3244 14.7593C56.6644 14.8756 58.9727 15.5866 60.978 16.8077C63.9825 18.6198 66.3037 21.5581 67.3446 24.9284C68.0567 27.2042 68.1928 29.6581 67.7319 31.9991C59.8428 31.9984 51.9536 31.9984 44.0654 31.9984C42.5666 31.9868 41.0619 32.0494 39.5691 31.8699C37.2032 31.598 34.892 30.8496 32.8122 29.6807C28.7141 27.3985 25.5467 23.4722 24.2108 18.9498C24.0211 18.2769 23.8761 17.5924 23.7589 16.9027C21.7625 16.9007 19.7652 16.9091 17.7678 16.8988C15.3612 16.873 12.9586 16.3686 10.7507 15.3999C7.93487 14.1729 5.44297 12.2053 3.58226 9.75001C1.94533 7.58342 0.749783 5.05001 0.272638 2.36163C0.136666 1.63191 0.0513497 0.893775 0 0.153711V1.52588e-05ZM15.7943 5.66738C15.7943 7.52917 15.7943 9.39095 15.7943 11.2527C16.3832 11.2527 16.9702 11.2527 17.5582 11.2527C17.5582 10.1575 17.5602 9.0629 17.5572 7.9683C17.584 7.96378 17.6387 7.95409 17.6655 7.94893C18.0072 9.04805 18.3419 10.1497 18.6766 11.2508C19.0987 11.2553 19.5218 11.2514 19.9449 11.2527C20.2866 10.1478 20.6164 9.03836 20.963 7.93472C20.9839 7.94699 21.0276 7.97153 21.0494 7.9838C21.0653 9.07452 21.0434 10.1652 21.0603 11.256C21.6513 11.2489 22.2423 11.2547 22.8342 11.2527C22.8342 9.39095 22.8342 7.52852 22.8342 5.66674C22.2353 5.66804 21.6354 5.66352 21.0375 5.66867C20.6104 5.67385 20.2071 5.98317 20.0989 6.40099C19.8724 7.19014 19.644 7.97929 19.4215 8.77036C19.3887 8.84204 19.3937 8.95828 19.3013 8.98217C19.2388 8.93374 19.2308 8.84785 19.205 8.77811C18.9805 7.98638 18.7551 7.1953 18.5256 6.40486C18.4124 5.98317 18.0072 5.66738 17.5721 5.66738C16.9802 5.6648 16.3872 5.66738 15.7943 5.66738ZM23.5722 11.2527C24.1651 11.2527 24.7581 11.2534 25.3511 11.2527C25.3511 9.39095 25.3511 7.52852 25.3511 5.66674C24.7581 5.66609 24.1651 5.66674 23.5722 5.66674C23.5712 7.52852 23.5712 9.39095 23.5722 11.2527ZM25.9381 5.66738C25.9669 6.88403 27.0395 7.9373 28.2394 7.98573C29.3835 7.99736 30.5287 7.9909 31.6739 7.98896C31.7256 7.6538 31.7067 7.30574 31.5935 6.98542C31.3432 6.23826 30.6102 5.68806 29.8255 5.66932C28.5304 5.66352 27.2342 5.66738 25.9381 5.66738ZM26.0572 8.31508C26.0572 9.2941 26.0572 10.2731 26.0572 11.2521C26.6502 11.2534 27.2432 11.2527 27.8371 11.2527C27.8371 10.7038 27.8361 10.1549 27.8371 9.606C28.0794 9.606 28.3228 9.606 28.5651 9.60535C28.8999 10.1549 29.2336 10.7045 29.5703 11.2527C30.2477 11.2514 30.925 11.2553 31.6024 11.2508C31.2091 10.6534 30.8148 10.058 30.4185 9.46263C30.9568 9.26373 31.4266 8.85561 31.6461 8.31637C29.7828 8.3125 27.9205 8.31508 26.0572 8.31508ZM44.0525 15.1274C44.0207 15.7222 43.9412 16.3137 43.8409 16.9007C37.2787 16.9065 30.7165 16.902 24.1552 16.9027C24.5376 19.3676 25.5418 21.7105 26.9343 23.7654C28.3178 25.8028 30.1225 27.5484 32.1993 28.8593C34.3924 30.2497 36.8903 31.1447 39.4608 31.4657C40.8801 31.6516 42.3143 31.6052 43.7416 31.611C51.6288 31.6116 59.517 31.609 67.4052 31.6123C67.8243 29.2765 67.6078 26.8354 66.8251 24.5991C65.7455 21.4909 63.5425 18.8019 60.7337 17.1203C58.6717 15.8707 56.284 15.1817 53.8784 15.1287C50.6038 15.1255 47.3281 15.1287 44.0525 15.1274ZM36.067 20.5203C35.2068 22.4054 34.3368 24.2852 33.4766 26.1696C33.6246 26.1696 33.7746 26.1703 33.9246 26.1709C34.162 25.6491 34.3944 25.1247 34.6347 24.6042C35.7203 24.6049 36.8069 24.6036 37.8925 24.6049C38.1239 25.128 38.3633 25.6478 38.5967 26.1703C38.7546 26.1703 38.9135 26.1703 39.0734 26.1696C38.2064 24.2872 37.3442 22.4021 36.4772 20.5203C36.3401 20.5197 36.203 20.5197 36.067 20.5203ZM34.8135 24.2155C35.7799 24.2181 36.7463 24.2161 37.7127 24.2168C37.226 23.1499 36.7483 22.0805 36.2646 21.0124C35.7829 22.0805 35.2962 23.1474 34.8135 24.2155ZM57.6626 20.778C57.6616 21.2139 57.6626 21.6498 57.6626 22.0857C57.464 22.0857 57.2663 22.0857 57.0687 22.0857C57.0687 22.209 57.0687 22.3324 57.0687 22.4564C57.2663 22.457 57.464 22.457 57.6626 22.457C57.6626 23.3676 57.6606 24.2788 57.6626 25.1893C57.6656 25.4896 57.7749 25.8028 58.0132 25.9953C58.4234 26.3214 59.0114 26.302 59.4753 26.105C59.4733 25.9733 59.4733 25.8422 59.4733 25.7111C59.1475 25.8635 58.7572 25.93 58.4215 25.7718C58.1821 25.6543 58.0649 25.3792 58.0639 25.1222C58.0619 24.2342 58.0639 23.3456 58.0629 22.457C58.5387 22.4564 59.0144 22.457 59.4902 22.457C59.4892 22.333 59.4892 22.209 59.4902 22.0857C59.0144 22.0851 58.5387 22.0863 58.0629 22.0851C58.0629 21.6498 58.0629 21.2139 58.0629 20.778C57.9288 20.778 57.7957 20.778 57.6626 20.778ZM39.9058 22.8012C39.287 23.5846 39.3128 24.8031 39.9753 25.5529C40.4073 26.0682 41.1016 26.3382 41.7661 26.2581C42.3312 26.2122 42.8417 25.8874 43.1943 25.4515C43.101 25.3669 43.0066 25.283 42.9132 25.1997C42.5855 25.5677 42.1366 25.8667 41.632 25.8809C41.1125 25.9139 40.5931 25.662 40.2762 25.2507C39.8124 24.6591 39.7667 23.7776 40.168 23.1416C40.455 22.663 41.0033 22.3466 41.5635 22.3737C42.0809 22.3679 42.5348 22.6811 42.8705 23.0531C42.9728 22.951 43.0692 22.8432 43.1645 22.7347C42.8864 22.4602 42.5755 22.2052 42.1981 22.087C41.3837 21.8087 40.4173 22.1005 39.9058 22.8012ZM44.2273 22.6411C43.5589 23.3463 43.4516 24.5119 43.9939 25.323C44.4001 25.9668 45.1718 26.3472 45.9267 26.2607C46.5048 26.2258 47.0212 25.8893 47.3877 25.4534C47.2924 25.3695 47.198 25.2862 47.1037 25.2029C46.9001 25.4166 46.6736 25.6149 46.4034 25.7369C45.8572 26.0011 45.1649 25.9003 44.709 25.5012C44.0614 24.9678 43.8995 23.9623 44.3048 23.2339C44.5838 22.6895 45.1877 22.3272 45.8006 22.375C46.3011 22.3853 46.7252 22.6998 47.0639 23.044C47.1632 22.9452 47.2616 22.8458 47.3609 22.7457C47.1931 22.5771 47.0153 22.4144 46.8127 22.2885C46.0111 21.7738 44.8639 21.9281 44.2273 22.6411ZM48.6193 22.3983C47.641 23.2003 47.5874 24.8806 48.5111 25.746C48.9501 26.1632 49.5818 26.3382 50.1747 26.2497C50.7091 26.1954 51.1808 25.8874 51.5404 25.4986C51.4441 25.4115 51.3487 25.3249 51.2524 25.239C50.7875 25.7809 49.9979 26.0456 49.3205 25.7841C48.7028 25.569 48.3243 24.9323 48.2796 24.2969C49.403 24.2975 50.5253 24.2988 51.6487 24.2962C51.6795 23.6188 51.4927 22.8865 50.9753 22.4221C50.3326 21.8409 49.2778 21.8455 48.6193 22.3983ZM48.9997 22.603C48.5657 22.8962 48.3333 23.4147 48.2796 23.9262C49.258 23.9268 50.2363 23.9242 51.2146 23.9275C51.1709 23.4677 51.012 22.9924 50.6574 22.6818C50.2075 22.282 49.4874 22.2568 48.9997 22.603ZM52.9786 22.9691C52.9806 22.6747 52.9796 22.3802 52.9796 22.0857C52.8455 22.0857 52.7114 22.0857 52.5793 22.0857C52.5793 23.8726 52.5793 25.6588 52.5793 27.4457C52.7114 27.445 52.8455 27.4457 52.9796 27.4457C52.9796 26.7379 52.9796 26.0295 52.9796 25.3217C53.2587 25.7356 53.6609 26.0863 54.1516 26.2097C54.8717 26.4034 55.6851 26.1251 56.146 25.5361C56.6754 24.8768 56.7568 23.9107 56.4161 23.1454C56.0814 22.3769 55.2233 21.8816 54.3939 22.0005C53.796 22.0644 53.2974 22.4757 52.9786 22.9691ZM54.1625 22.4441C53.9221 22.5145 53.7026 22.6475 53.5169 22.8148C52.9031 23.3708 52.7829 24.3743 53.217 25.075C53.499 25.551 54.0304 25.8667 54.5816 25.8784C55.1567 25.8945 55.7308 25.5665 55.9811 25.0401C56.3238 24.3266 56.2374 23.3747 55.6593 22.807C55.2719 22.4305 54.679 22.2762 54.1625 22.4441Z" fill="#999999"/>
</svg>
