<svg width="129" height="64" viewBox="0 0 129 64" fill="none" xmlns="http://www.w3.org/2000/svg">
<path fill-rule="evenodd" clip-rule="evenodd" d="M26.0094 19.2046C26.8505 19.1996 29.3501 18.9744 30.4089 22.5478C31.1221 24.9549 32.2582 28.8978 33.8172 34.3766H34.4521C36.124 28.6005 37.2725 24.6576 37.8976 22.5478C38.9674 18.9372 41.6419 19.2047 42.7117 19.2047L50.9656 19.2047V44.8802H42.553V29.7492H41.9889L37.2993 44.8802H30.9699L26.2803 29.738H25.7162V44.8802H17.3036V19.2047L26.0094 19.2046ZM63.0459 19.2047V34.3469H63.717L69.4215 21.8956C70.5288 19.4177 72.8889 19.2047 72.8889 19.2047H81.0298V44.8802H72.4415V29.738H71.7704L66.1778 42.1893C65.0704 44.656 62.5985 44.8802 62.5985 44.8802H54.4576V19.2047H63.0459ZM110.715 31.4059C109.517 34.8006 105.755 37.2319 101.589 37.2319H92.5829V44.8802H84.416V31.4059H110.715Z" fill="white"/>
<path fill-rule="evenodd" clip-rule="evenodd" d="M101.981 19.205H83.9855C84.4138 24.9212 89.3364 29.8147 94.4324 29.8147H111.28C112.252 25.0638 108.905 19.205 101.981 19.205Z" fill="white"/>
</svg>
