<svg width="111" height="52" viewBox="0 0 111 52" fill="none" xmlns="http://www.w3.org/2000/svg">
<path fill-rule="evenodd" clip-rule="evenodd" d="M0 1.52588e-05H49.2808C49.8499 0.081868 50.4271 0.0682258 50.9978 0.138535C55.1985 0.54465 59.2712 2.14918 62.6354 4.70025C65.664 6.97638 68.13 9.99864 69.7431 13.4312C71.2882 16.699 72.0454 20.3384 71.94 23.9535C76.6125 23.9514 81.2851 23.9524 85.9593 23.9524C86.8656 23.9608 87.7719 23.9293 88.6766 23.9839C92.4964 24.1729 96.2642 25.3282 99.5376 27.3125C104.442 30.2572 108.231 35.0319 109.93 40.5087C111.093 44.2068 111.315 48.1944 110.562 51.9986C97.6845 51.9974 84.8066 51.9974 71.9303 51.9974C69.4837 51.9786 67.0275 52.0803 64.5907 51.7886C60.7288 51.3468 56.956 50.1306 53.561 48.2312C46.8716 44.5226 41.7013 38.1423 39.5206 30.7934C39.211 29.7 38.9742 28.5877 38.7829 27.4669C35.5241 27.4637 32.2637 27.4773 29.0033 27.4606C25.0749 27.4186 21.153 26.599 17.5489 25.0249C12.9525 23.031 8.88484 19.8336 5.84751 15.8438C3.17546 12.323 1.22391 8.20627 0.445042 3.83765C0.223087 2.65184 0.0838208 1.45238 0 0.249771V1.52588e-05ZM25.7818 9.20949C25.7818 12.2349 25.7818 15.2603 25.7818 18.2857C26.7432 18.2857 27.7014 18.2857 28.6612 18.2857C28.6612 16.506 28.6645 14.7272 28.6596 12.9485C28.7034 12.9411 28.7925 12.9254 28.8363 12.917C29.394 14.7031 29.9404 16.4933 30.4868 18.2826C31.1758 18.2899 31.8665 18.2835 32.5572 18.2857C33.1149 16.4902 33.6532 14.6873 34.219 12.8939C34.2531 12.9139 34.3244 12.9537 34.3601 12.9737C34.386 14.7461 34.3503 16.5185 34.3779 18.291C35.3426 18.2795 36.3072 18.2889 37.2735 18.2857C37.2735 15.2603 37.2735 12.2338 37.2735 9.20845C36.2959 9.21055 35.3166 9.2032 34.3406 9.21159C33.6434 9.21999 32.9852 9.72265 32.8085 10.4016C32.4388 11.684 32.0659 12.9663 31.7028 14.2518C31.6493 14.3683 31.6574 14.5572 31.5066 14.596C31.4044 14.5173 31.3915 14.3778 31.3493 14.2644C30.9829 12.9779 30.6149 11.6924 30.2404 10.4079C30.0555 9.72265 29.394 9.20949 28.6839 9.20949C27.7176 9.2053 26.7497 9.20949 25.7818 9.20949ZM38.4781 18.2857C39.4461 18.2857 40.414 18.2868 41.3819 18.2857C41.3819 15.2603 41.3819 12.2338 41.3819 9.20845C40.414 9.2074 39.4461 9.20845 38.4781 9.20845C38.4765 12.2338 38.4765 15.2603 38.4781 18.2857ZM42.3401 9.20949C42.3871 11.1865 44.1381 12.8981 46.0966 12.9768C47.9643 12.9957 49.8337 12.9852 51.703 12.9821C51.7873 12.4374 51.7565 11.8718 51.5717 11.3513C51.1631 10.1372 49.9666 9.24308 48.6858 9.21264C46.5716 9.2032 44.4558 9.20949 42.3401 9.20949ZM42.5346 13.512C42.5346 15.1029 42.5346 16.6938 42.5346 18.2847C43.5025 18.2868 44.4704 18.2857 45.44 18.2857C45.44 17.3937 45.4383 16.5017 45.44 15.6097C45.8356 15.6097 46.2328 15.6097 46.6284 15.6087C47.1748 16.5017 47.7195 17.3948 48.2691 18.2857C49.3749 18.2835 50.4806 18.2899 51.5863 18.2826C50.9443 17.3118 50.3006 16.3443 49.6537 15.3768C50.5324 15.0536 51.2993 14.3903 51.6576 13.5141C48.6161 13.5078 45.5762 13.512 42.5346 13.512ZM71.9092 24.582C71.8573 25.5486 71.7276 26.5098 71.5639 27.4637C60.852 27.4731 50.1401 27.4658 39.4298 27.4669C40.054 31.4724 41.6932 35.2796 43.9662 38.6188C46.2247 41.9296 49.1706 44.7662 52.5607 46.8964C56.1405 49.1558 60.218 50.6102 64.4139 51.1318C66.7308 51.4339 69.0719 51.3585 71.4017 51.3679C84.2764 51.3689 97.1527 51.3646 110.029 51.37C110.713 47.5743 110.36 43.6075 109.082 39.9736C107.32 34.9227 103.724 30.5531 99.1388 27.8205C95.773 25.7899 91.8754 24.6703 87.9486 24.5842C82.6032 24.579 77.2562 24.5842 71.9092 24.582ZM58.874 33.3455C57.47 36.4088 56.0497 39.4635 54.6457 42.5256C54.8872 42.5256 55.1321 42.5268 55.3769 42.5277C55.7644 41.6798 56.1437 40.8277 56.5361 39.9818C58.3082 39.983 60.0819 39.9809 61.8539 39.983C62.2317 40.833 62.6224 41.6777 63.0034 42.5268C63.2612 42.5268 63.5206 42.5268 63.7816 42.5256C62.3663 39.4667 60.959 36.4034 59.5436 33.3455C59.3199 33.3445 59.0961 33.3445 58.874 33.3455ZM56.8279 39.3502C58.4054 39.3544 59.983 39.3512 61.5605 39.3523C60.766 37.6186 59.9862 35.8808 59.1966 34.1452C58.4103 35.8808 57.6159 37.6145 56.8279 39.3502ZM94.1258 33.7643C94.1241 34.4726 94.1258 35.1809 94.1258 35.8893C93.8015 35.8893 93.4789 35.8893 93.1562 35.8893C93.1562 36.0896 93.1562 36.2902 93.1562 36.4917C93.4789 36.4926 93.8015 36.4926 94.1258 36.4926C94.1258 37.9724 94.1225 39.4531 94.1258 40.9326C94.1306 41.4206 94.309 41.9296 94.6981 42.2424C95.3677 42.7723 96.3275 42.7408 97.0846 42.4206C97.0814 42.2066 97.0814 41.9936 97.0814 41.7806C96.5496 42.0282 95.9124 42.1363 95.3644 41.8792C94.9737 41.6883 94.7824 41.2412 94.7808 40.8236C94.7775 39.3806 94.7808 37.9366 94.7791 36.4926C95.5557 36.4917 96.3323 36.4926 97.1089 36.4926C97.1073 36.2911 97.1073 36.0896 97.1089 35.8893C96.3323 35.8883 95.5557 35.8903 94.7791 35.8883C94.7791 35.1809 94.7791 34.4726 94.7791 33.7643C94.5603 33.7643 94.343 33.7643 94.1258 33.7643ZM65.1403 37.052C64.1302 38.325 64.1724 40.3051 65.2538 41.5235C65.959 42.3608 67.0923 42.7996 68.177 42.6694C69.0995 42.5948 69.9328 42.067 70.5084 41.3587C70.356 41.2212 70.202 41.0849 70.0496 40.9495C69.5145 41.5475 68.7817 42.0334 67.9581 42.0565C67.1102 42.1101 66.2622 41.7008 65.745 41.0324C64.9879 40.0711 64.9133 38.6386 65.5683 37.6051C66.0369 36.8274 66.9318 36.3132 67.8462 36.3573C68.6909 36.3479 69.4318 36.8568 69.9798 37.4613C70.1468 37.2954 70.3041 37.1202 70.4598 36.9439C70.0058 36.4978 69.4983 36.0835 68.8822 35.8914C67.5528 35.4392 65.9753 35.9133 65.1403 37.052ZM72.1945 36.7918C71.1034 37.9378 70.9283 39.8319 71.8135 41.1499C72.4767 42.1961 73.7364 42.8142 74.9686 42.6737C75.9122 42.6169 76.7552 42.0701 77.3535 41.3618C77.1978 41.2255 77.0438 41.0901 76.8898 40.9547C76.5574 41.302 76.1878 41.6242 75.7468 41.8225C74.8551 42.2518 73.7251 42.088 72.9809 41.4395C71.9238 40.5727 71.6595 38.9388 72.321 37.7551C72.7766 36.8705 73.7623 36.2817 74.7627 36.3594C75.5798 36.3761 76.2721 36.8872 76.8249 37.4465C76.9871 37.286 77.1476 37.1244 77.3097 36.9618C77.0357 36.6878 76.7455 36.4234 76.4148 36.2188C75.1064 35.3824 73.2338 35.6332 72.1945 36.7918ZM79.3639 36.3973C77.7669 37.7005 77.6794 40.431 79.1872 41.8373C79.9038 42.5152 80.9349 42.7996 81.9028 42.6558C82.7751 42.5675 83.5452 42.067 84.1321 41.4352C83.9748 41.2937 83.8192 41.153 83.6619 41.0134C82.9032 41.894 81.6142 42.3241 80.5085 41.8992C79.5001 41.5496 78.8824 40.515 78.8094 39.4825C80.6431 39.4835 82.4752 39.4856 84.3088 39.4813C84.3591 38.3806 84.0543 37.1906 83.2096 36.4359C82.1606 35.4915 80.4388 35.499 79.3639 36.3973ZM79.9848 36.7299C79.2763 37.2063 78.8969 38.0489 78.8094 38.8801C80.4064 38.8811 82.0033 38.8768 83.6003 38.8822C83.529 38.135 83.2696 37.3627 82.6908 36.8579C81.9564 36.2083 80.7809 36.1673 79.9848 36.7299ZM86.4797 37.3248C86.483 36.8464 86.4814 36.3678 86.4814 35.8893C86.2625 35.8893 86.0436 35.8893 85.828 35.8893C85.828 38.793 85.828 41.6956 85.828 44.5993C86.0436 44.5981 86.2625 44.5993 86.4814 44.5993C86.4814 43.4491 86.4814 42.298 86.4814 41.1478C86.937 41.8204 87.5936 42.3903 88.3945 42.5908C89.5699 42.9055 90.8978 42.4533 91.6501 41.4962C92.5142 40.4248 92.6471 38.8549 92.091 37.6113C91.5447 36.3625 90.1439 35.5576 88.7901 35.7508C87.8141 35.8547 87.0002 36.523 86.4797 37.3248ZM88.4123 36.4717C88.02 36.5861 87.6617 36.8022 87.3585 37.0741C86.3565 37.9776 86.1604 39.6083 86.8689 40.7469C87.3293 41.5204 88.1967 42.0334 89.0965 42.0524C90.0352 42.0786 90.9724 41.5456 91.3809 40.6902C91.9403 39.5307 91.7992 37.9839 90.8556 37.0614C90.2233 36.4496 89.2554 36.1988 88.4123 36.4717Z" fill="#AEAEAE"/>
</svg>
