<svg width="78" height="52" viewBox="0 0 78 52" fill="none" xmlns="http://www.w3.org/2000/svg">
<mask id="mask0_13167_14955" style="mask-type:luminance" maskUnits="userSpaceOnUse" x="0" y="0" width="78" height="52">
<path d="M78 0H0V52H78V0Z" fill="white"/>
</mask>
<g mask="url(#mask0_13167_14955)">
<path d="M27.6656 26.4236L22.6102 39.2119L20.5692 28.34C20.3385 27.1266 19.3846 26.4236 18.3349 26.4236H10.0734L9.95636 26.963C11.6512 27.3385 13.5785 27.926 14.7436 28.5615C15.4554 28.9564 15.6585 29.2934 15.8892 30.2179L19.7697 45.2015H24.9015L32.7697 26.4236H27.6656Z" fill="#AEAEAE"/>
<path d="M34.8498 26.4236L30.8344 45.2015H35.6964L39.7036 26.4236H34.8498Z" fill="#AEAEAE"/>
<path d="M46.0785 31.6238C46.0882 30.9496 46.7333 30.237 48.139 30.0445C48.841 29.9579 50.7487 29.8904 52.9343 30.8823L53.781 26.9053C52.6158 26.4815 51.1046 26.0674 49.2358 26.0674C44.4307 26.0674 41.0605 28.6289 41.0215 32.2883C40.9939 34.9845 43.4395 36.4964 45.279 37.4015C47.1753 38.3164 47.8107 38.9038 47.801 39.7415C47.7912 41.003 46.2897 41.5519 44.9036 41.5711C42.4563 41.6096 41.041 40.9164 39.9051 40.3868L39.0292 44.4985C40.1554 45.0185 42.2548 45.4711 44.4307 45.5C49.5251 45.5 52.8661 42.977 52.8856 39.077C52.9051 34.1083 46.0297 33.8385 46.0785 31.6238Z" fill="#AEAEAE"/>
<path d="M60.1461 38.5474L62.7266 31.4889L64.181 38.5474H60.1461ZM61.9954 26.4236C61.061 26.4236 60.2712 26.963 59.9251 27.8007L52.6354 45.2015H57.7395L58.7503 42.3993H64.9707L65.559 45.2015H70.0651L66.1456 26.4236H61.9954Z" fill="#AEAEAE"/>
<path d="M38.7108 15.8795C38.7498 18.1329 40.1846 19.0669 41.86 19.0669C43.0544 19.0669 43.7759 18.855 44.4015 18.595L44.6908 19.7891C44.1041 20.0491 43.0918 20.3573 41.639 20.3573C38.8164 20.3573 37.1313 18.4988 37.1313 15.7351C37.1313 12.9714 38.7595 10.7855 41.4261 10.7855C44.421 10.7855 45.2205 13.424 45.2205 15.1092C45.2205 15.4462 45.1815 15.7158 45.1637 15.8892H38.7108V15.8795ZM43.6036 14.6855C43.6215 13.6262 43.1698 11.9795 41.2913 11.9795C39.6062 11.9795 38.8652 13.5299 38.7303 14.6855H43.6036Z" fill="#AEAEAE"/>
<path d="M19.24 13.8477C19.24 12.7692 19.2205 11.8447 19.1636 10.9877H20.6261L20.6846 12.7884H20.761C21.1754 11.5558 22.1861 10.7855 23.3041 10.7855C23.4861 10.7855 23.6308 10.8047 23.7754 10.8432V12.4129C23.6015 12.3743 23.439 12.3551 23.2066 12.3551C22.0334 12.3551 21.2046 13.241 20.9739 14.4929C20.9349 14.724 20.8959 14.984 20.8959 15.2729V20.1648H19.2498V13.8477H19.24Z" fill="#AEAEAE"/>
<path d="M4.16974 20.1646L0 7.39581H1.78099L3.77487 13.6936C4.32412 15.4173 4.79538 16.9676 5.1415 18.4699H5.18051C5.53638 16.9869 6.06611 15.3788 6.63486 13.7129L8.79126 7.40545H10.5544L5.98976 20.1646H4.16974Z" fill="#AEAEAE"/>
<path d="M11.4303 15.8795C11.4693 18.1329 12.9042 19.0669 14.5795 19.0669C15.7739 19.0669 16.4954 18.855 17.121 18.595L17.4103 19.7891C16.8237 20.0491 15.821 20.3573 14.3585 20.3573C11.5359 20.3573 9.85077 18.4988 9.85077 15.7351C9.85077 12.9714 11.479 10.7855 14.1554 10.7855C17.1503 10.7855 17.9498 13.424 17.9498 15.1092C17.9498 15.4462 17.9108 15.7158 17.8913 15.8892H11.4303V15.8795ZM16.3134 14.6855C16.3313 13.6262 15.8795 11.9795 14.001 11.9795C12.3159 11.9795 11.5749 13.5299 11.44 14.6855H16.3134Z" fill="#AEAEAE"/>
<path d="M35.9661 8.41637C35.9856 8.98452 35.5712 9.4371 34.9082 9.4371C34.32 9.4371 33.9056 8.98452 33.9056 8.41637C33.9056 7.82897 34.3395 7.37637 34.9456 7.37637C35.5615 7.37637 35.9661 7.82897 35.9661 8.41637ZM34.1088 10.9875H35.7744V20.1549H34.1088V10.9875Z" fill="#AEAEAE"/>
<path d="M26.6061 8.41637C26.6256 8.98452 26.2015 9.4371 25.5482 9.4371C24.96 9.4371 24.5456 8.98452 24.5456 8.41637C24.5456 7.82897 24.9795 7.37637 25.5856 7.37637C26.2112 7.37637 26.6061 7.82897 26.6061 8.41637ZM24.7487 10.9875H26.4241V20.1549H24.7487V10.9875Z" fill="#AEAEAE"/>
<path d="M60.619 20.1645C60.6564 19.5385 60.6954 18.6045 60.6954 17.7955V6.71185H62.3415V12.4704H62.3805C62.9688 11.4496 64.0266 10.7852 65.5103 10.7852C67.7836 10.7852 69.3908 12.6822 69.381 15.4652C69.381 18.7393 67.3108 20.3764 65.2698 20.3764C63.9405 20.3764 62.881 19.866 62.1985 18.6526H62.14L62.0636 20.1645H60.619ZM62.3415 16.486C62.3415 16.6979 62.3805 16.9 62.4195 17.0926C62.7364 18.2481 63.7098 19.0474 64.9236 19.0474C66.6656 19.0474 67.7056 17.6222 67.7056 15.523C67.7056 13.6837 66.7615 12.1141 64.9805 12.1141C63.8447 12.1141 62.7851 12.8941 62.439 14.1556C62.4 14.3482 62.3415 14.5696 62.3415 14.8393V16.486Z" fill="#AEAEAE"/>
<path d="M71.201 10.9875L73.2046 16.4089C73.4159 17.0157 73.6466 17.7378 73.7912 18.2868H73.8302C74.0041 17.7378 74.1959 17.0349 74.4185 16.3704L76.2385 10.9875H78L75.4959 17.5259C74.3015 20.6749 73.4841 22.2831 72.3466 23.2653C71.5292 23.9874 70.72 24.2668 70.3056 24.3438L69.8912 22.9378C70.3056 22.8031 70.8549 22.5431 71.3456 22.1193C71.799 21.7631 72.3661 21.1178 72.7512 20.2608C72.8292 20.0874 72.8861 19.9623 72.8861 19.8659C72.8861 19.7697 72.8487 19.6349 72.7707 19.4327L69.381 10.9779H71.201V10.9875Z" fill="#AEAEAE"/>
<path d="M54.4456 6.71185V17.7955C54.4456 18.6141 54.4651 19.5385 54.5236 20.1645H53.0302L52.9539 18.5755H52.9149C52.4046 19.5964 51.2866 20.3764 49.7851 20.3764C47.5702 20.3764 45.8656 18.4985 45.8656 15.7156C45.8461 12.663 47.7441 10.7852 49.9785 10.7852C51.3744 10.7852 52.3266 11.4496 52.741 12.1911H52.78V6.71185H54.4456ZM52.78 14.7237C52.78 14.5119 52.7605 14.2326 52.7036 14.0207C52.4534 12.9615 51.5466 12.0852 50.2954 12.0852C48.5712 12.0852 47.5507 13.597 47.5507 15.6289C47.5507 17.4874 48.4559 19.0185 50.2564 19.0185C51.3744 19.0185 52.3949 18.277 52.7036 17.0251C52.7605 16.8036 52.78 16.5726 52.78 16.3126V14.7237Z" fill="#AEAEAE"/>
<path d="M28.6 20.1645V12.2585H27.3098V10.9874H28.6V10.5541C28.6 9.2637 28.8893 8.08889 29.6595 7.34741C30.2851 6.75036 31.1236 6.5 31.8939 6.5C32.4805 6.5 32.9908 6.63481 33.319 6.76964L33.0866 8.06C32.8364 7.94445 32.5 7.85778 32.0288 7.85778C30.6118 7.85778 30.2461 9.10964 30.2461 10.5156V11.0067H32.461V12.2778H30.2461V20.1836H28.6V20.1645Z" fill="#AEAEAE"/>
</g>
</svg>
