<svg width="48" height="32" viewBox="0 0 48 32" fill="none" xmlns="http://www.w3.org/2000/svg">
<mask id="mask0_16654_14336" style="mask-type:luminance" maskUnits="userSpaceOnUse" x="0" y="0" width="48" height="32">
<path d="M48 0H0V32H48V0Z" fill="white"/>
</mask>
<g mask="url(#mask0_16654_14336)">
<path d="M17.025 16.2607L13.914 24.1304L12.658 17.44C12.516 16.6933 11.929 16.2607 11.283 16.2607H6.19902L6.12701 16.5926C7.17001 16.8237 8.35601 17.1852 9.07301 17.5763C9.51101 17.8193 9.63602 18.0267 9.77802 18.5956L12.166 27.8163H15.324L20.166 16.2607H17.025Z" fill="#999999"/>
<path d="M21.446 16.2607L18.975 27.8163H21.967L24.433 16.2607H21.446Z" fill="#999999"/>
<path d="M28.356 19.4608C28.362 19.0459 28.759 18.6074 29.624 18.4889C30.056 18.4356 31.23 18.3941 32.575 19.0045L33.096 16.5571C32.379 16.2963 31.449 16.0415 30.299 16.0415C27.342 16.0415 25.268 17.6178 25.244 19.8697C25.227 21.5289 26.732 22.4593 27.864 23.0163C29.031 23.5793 29.422 23.9408 29.416 24.4563C29.41 25.2326 28.486 25.5704 27.633 25.5822C26.127 25.6059 25.256 25.1793 24.557 24.8534L24.018 27.3837C24.711 27.7037 26.003 27.9822 27.342 28C30.477 28 32.533 26.4474 32.545 24.0474C32.557 20.9897 28.326 20.8237 28.356 19.4608Z" fill="#999999"/>
<path d="M37.013 23.7215L38.601 19.3778L39.496 23.7215H37.013ZM38.151 16.2607C37.576 16.2607 37.09 16.5926 36.877 17.1081L32.391 27.8163H35.532L36.154 26.0919H39.982L40.344 27.8163H43.117L40.705 16.2607H38.151Z" fill="#999999"/>
<path d="M23.822 9.77202C23.846 11.1587 24.729 11.7335 25.76 11.7335C26.495 11.7335 26.939 11.6031 27.324 11.4431L27.502 12.1779C27.141 12.3379 26.518 12.5276 25.624 12.5276C23.887 12.5276 22.85 11.3839 22.85 9.68313C22.85 7.98239 23.852 6.63721 25.493 6.63721C27.336 6.63721 27.828 8.26091 27.828 9.29795C27.828 9.50536 27.804 9.67128 27.793 9.77795H23.822V9.77202ZM26.833 9.03721C26.844 8.38536 26.566 7.37202 25.41 7.37202C24.373 7.37202 23.917 8.3261 23.834 9.03721H26.833Z" fill="#999999"/>
<path d="M11.84 8.52165C11.84 7.85795 11.828 7.28906 11.793 6.76165H12.693L12.729 7.8698H12.776C13.031 7.11128 13.653 6.63721 14.341 6.63721C14.453 6.63721 14.542 6.64906 14.631 6.67276V7.63869C14.524 7.61498 14.424 7.60313 14.281 7.60313C13.559 7.60313 13.049 8.14832 12.907 8.91869C12.883 9.06091 12.859 9.22091 12.859 9.39869V12.4091H11.846V8.52165H11.84Z" fill="#999999"/>
<path d="M2.56599 12.409L0 4.55127H1.09599L2.323 8.42682C2.661 9.48757 2.951 10.4416 3.164 11.3661H3.188C3.407 10.4535 3.73299 9.46386 4.08299 8.43868L5.41 4.5572H6.495L3.686 12.409H2.56599Z" fill="#999999"/>
<path d="M7.03401 9.77202C7.05801 11.1587 7.94102 11.7335 8.97202 11.7335C9.70702 11.7335 10.151 11.6031 10.536 11.4431L10.714 12.1779C10.353 12.3379 9.73601 12.5276 8.83601 12.5276C7.09901 12.5276 6.06201 11.3839 6.06201 9.68313C6.06201 7.98239 7.06401 6.63721 8.71101 6.63721C10.554 6.63721 11.046 8.26091 11.046 9.29795C11.046 9.50536 11.022 9.67128 11.01 9.77795H7.03401V9.77202ZM10.039 9.03721C10.05 8.38536 9.77201 7.37202 8.61601 7.37202C7.57901 7.37202 7.12301 8.3261 7.04001 9.03721H10.039Z" fill="#999999"/>
<path d="M22.133 5.17931C22.145 5.52894 21.89 5.80745 21.482 5.80745C21.12 5.80745 20.865 5.52894 20.865 5.17931C20.865 4.81783 21.132 4.53931 21.505 4.53931C21.884 4.53931 22.133 4.81783 22.133 5.17931ZM20.99 6.76153H22.015V12.403H20.99V6.76153Z" fill="#999999"/>
<path d="M16.373 5.17931C16.385 5.52894 16.124 5.80745 15.722 5.80745C15.36 5.80745 15.105 5.52894 15.105 5.17931C15.105 4.81783 15.372 4.53931 15.745 4.53931C16.13 4.53931 16.373 4.81783 16.373 5.17931ZM15.23 6.76153H16.261V12.403H15.23V6.76153Z" fill="#999999"/>
<path d="M37.304 12.4089C37.327 12.0237 37.351 11.4489 37.351 10.9511V4.13037H38.364V7.67407H38.388C38.75 7.04593 39.401 6.63704 40.314 6.63704C41.713 6.63704 42.702 7.80445 42.696 9.51704C42.696 11.5319 41.422 12.5393 40.166 12.5393C39.348 12.5393 38.696 12.2252 38.276 11.4785H38.24L38.193 12.4089H37.304ZM38.364 10.1452C38.364 10.2756 38.388 10.4 38.412 10.5185C38.607 11.2296 39.206 11.7215 39.953 11.7215C41.025 11.7215 41.665 10.8444 41.665 9.55259C41.665 8.42074 41.084 7.45482 39.988 7.45482C39.289 7.45482 38.637 7.93482 38.424 8.71111C38.4 8.82963 38.364 8.96593 38.364 9.13185V10.1452Z" fill="#999999"/>
<path d="M43.816 6.76154L45.049 10.0978C45.179 10.4712 45.321 10.9156 45.41 11.2534H45.434C45.541 10.9156 45.659 10.483 45.796 10.0741L46.916 6.76154H48L46.459 10.7852C45.724 12.723 45.221 13.7127 44.521 14.3171C44.018 14.7615 43.52 14.9334 43.265 14.9808L43.01 14.1156C43.265 14.0327 43.603 13.8727 43.905 13.6119C44.184 13.3927 44.533 12.9956 44.77 12.4682C44.818 12.3615 44.853 12.2845 44.853 12.2252C44.853 12.166 44.83 12.083 44.782 11.9586L42.696 6.75562H43.816V6.76154Z" fill="#999999"/>
<path d="M33.505 4.13037V10.9511C33.505 11.4548 33.517 12.0237 33.553 12.4089H32.634L32.587 11.4311H32.563C32.249 12.0593 31.561 12.5393 30.637 12.5393C29.274 12.5393 28.225 11.3837 28.225 9.67111C28.213 7.79259 29.381 6.63704 30.756 6.63704C31.615 6.63704 32.201 7.04593 32.456 7.50222H32.48V4.13037H33.505ZM32.48 9.06074C32.48 8.93037 32.468 8.75852 32.433 8.62815C32.279 7.9763 31.721 7.43704 30.951 7.43704C29.89 7.43704 29.262 8.36741 29.262 9.61778C29.262 10.7615 29.819 11.7037 30.927 11.7037C31.615 11.7037 32.243 11.2474 32.433 10.477C32.468 10.3407 32.48 10.1985 32.48 10.0385V9.06074Z" fill="#999999"/>
<path d="M17.6 12.4089V7.5437H16.806V6.76148H17.6V6.49481C17.6 5.70074 17.778 4.97778 18.252 4.52148C18.637 4.15407 19.153 4 19.627 4C19.988 4 20.302 4.08296 20.504 4.16593L20.361 4.96C20.207 4.88889 20 4.83556 19.71 4.83556C18.838 4.83556 18.613 5.60593 18.613 6.47111V6.77333H19.976V7.55556H18.613V12.4207H17.6V12.4089Z" fill="#999999"/>
</g>
</svg>
